<?xml version="1.0" encoding="UTF-8" standalone="no"?>
<!-- Created with Inkscape (http://www.inkscape.org/) -->

<svg
   id="svg2"
   version="1.1"
   inkscape:version="1.1.2 (b8e25be8, 2022-02-05)"
   width="602.02313"
   height="121.36362"
   xml:space="preserve"
   sodipodi:docname="backspace.svg"
   xmlns:inkscape="http://www.inkscape.org/namespaces/inkscape"
   xmlns:sodipodi="http://sodipodi.sourceforge.net/DTD/sodipodi-0.dtd"
   xmlns="http://www.w3.org/2000/svg"
   xmlns:svg="http://www.w3.org/2000/svg"
   xmlns:rdf="http://www.w3.org/1999/02/22-rdf-syntax-ns#"
   xmlns:cc="http://creativecommons.org/ns#"
   xmlns:dc="http://purl.org/dc/elements/1.1/"><metadata
     id="metadata8"><rdf:RDF><cc:Work
         rdf:about=""><dc:format>image/svg+xml</dc:format><dc:type
           rdf:resource="http://purl.org/dc/dcmitype/StillImage" /></cc:Work></rdf:RDF></metadata><defs
     id="defs6"><clipPath
       clipPathUnits="userSpaceOnUse"
       id="clipPath16"><path
         d="M 0,841.89 H 595.28 V 0 H 0 Z"
         id="path18" /></clipPath></defs><sodipodi:namedview
     pagecolor="#ffffff"
     bordercolor="#666666"
     borderopacity="1"
     objecttolerance="10"
     gridtolerance="10"
     guidetolerance="10"
     inkscape:pageopacity="0"
     inkscape:pageshadow="2"
     inkscape:window-width="1596"
     inkscape:window-height="861"
     id="namedview4"
     showgrid="false"
     inkscape:zoom="0.89702926"
     inkscape:cx="341.68339"
     inkscape:cy="254.72971"
     inkscape:window-x="0"
     inkscape:window-y="38"
     inkscape:window-maximized="0"
     inkscape:current-layer="g10"
     inkscape:pagecheckerboard="0"
     fit-margin-top="10"
     fit-margin-left="10"
     fit-margin-right="10"
     fit-margin-bottom="10" /><g
     id="g10"
     inkscape:groupmode="layer"
     inkscape:label="Backspace_Logo"
     transform="matrix(1.25,0,0,-1.25,-71.683375,942.45668)"
     sodipodi:insensitive="true"><g
   id="g12"><g
     id="g14"
     clip-path="url(#clipPath16)"><g
       id="g20"
       transform="translate(276.3911,725.1709)"><path
         d="m 0,0 c -3.56,2.104 -7.441,3.154 -11.649,3.154 -3.183,0 -6.121,-0.539 -8.815,-1.617 -2.699,-1.079 -5.002,-2.617 -6.916,-4.61 -1.914,-1.996 -3.385,-4.356 -4.408,-7.078 -1.026,-2.723 -1.538,-5.648 -1.538,-8.776 0,-3.236 0.539,-6.216 1.618,-8.938 1.078,-2.723 2.601,-5.069 4.57,-7.037 1.968,-1.971 4.247,-3.477 6.835,-4.528 2.589,-1.051 5.339,-1.578 8.251,-1.578 2.103,0 4.34,0.256 6.712,0.768 2.372,0.513 4.234,1.172 5.582,1.982 l 0.484,-7.846 c -1.888,-0.81 -3.95,-1.348 -6.186,-1.619 -2.238,-0.269 -4.463,-0.404 -6.673,-0.404 -4.423,0 -8.467,0.689 -12.134,2.064 -3.667,1.374 -6.821,3.356 -9.462,5.944 -2.644,2.588 -4.667,5.701 -6.068,9.344 -1.403,3.638 -2.102,7.668 -2.102,12.09 0,4.26 0.728,8.184 2.183,11.77 1.457,3.584 3.53,6.658 6.229,9.22 2.695,2.562 5.877,4.53 9.544,5.904 3.667,1.377 7.63,2.063 11.891,2.063 4.799,0 9.03,-0.809 12.698,-2.426 z"
         style="fill:#1d4d99;fill-opacity:1;fill-rule:nonzero;stroke:none"
         id="path22" /></g><g
       id="g24"
       transform="translate(360.1016,725.98)"><path
         d="m 0,0 c -2.264,0.862 -4.098,1.469 -5.498,1.82 -1.402,0.35 -3.104,0.526 -5.1,0.526 -1.185,0 -2.355,-0.121 -3.515,-0.365 -1.16,-0.242 -2.225,-0.647 -3.196,-1.213 -0.968,-0.565 -1.738,-1.348 -2.304,-2.345 -0.567,-1 -0.852,-2.197 -0.852,-3.599 0,-2.103 0.781,-3.789 2.348,-5.055 1.564,-1.269 4.015,-2.711 7.357,-4.328 2.321,-1.079 4.221,-2.05 5.705,-2.913 1.485,-0.862 2.912,-1.955 4.289,-3.275 1.373,-1.321 2.477,-2.912 3.315,-4.773 0.834,-1.859 1.254,-4.058 1.254,-6.591 0,-2.911 -0.526,-5.447 -1.576,-7.604 -1.051,-2.158 -2.524,-3.912 -4.411,-5.256 -1.888,-1.348 -4.058,-2.347 -6.509,-2.992 -2.455,-0.649 -5.164,-0.973 -8.131,-0.973 -1.778,0 -3.586,0.202 -5.418,0.607 -1.834,0.405 -3.883,0.985 -6.149,1.741 l 0.809,7.52 c 1.727,-0.702 3.654,-1.334 5.785,-1.9 2.127,-0.566 4.111,-0.849 5.945,-0.849 1.237,0 2.506,0.176 3.801,0.526 1.291,0.351 2.492,0.901 3.598,1.657 1.105,0.755 1.994,1.725 2.67,2.913 0.676,1.185 1.012,2.558 1.012,4.124 0,1.401 -0.284,2.63 -0.85,3.68 -0.568,1.053 -1.361,2.036 -2.385,2.954 -1.351,1.076 -3.803,2.451 -7.361,4.125 -2.211,1.078 -4.018,2.007 -5.42,2.789 -1.402,0.781 -2.75,1.765 -4.041,2.952 -1.297,1.186 -2.32,2.616 -3.078,4.287 -0.754,1.67 -1.131,3.64 -1.131,5.905 0,4.852 1.699,8.627 5.094,11.325 3.398,2.695 7.74,4.043 13.023,4.043 1.941,0 3.965,-0.161 6.068,-0.485 2.102,-0.323 4.096,-0.836 5.985,-1.537 z"
         style="fill:#1d4d99;fill-opacity:1;fill-rule:nonzero;stroke:none"
         id="path26" /></g><g
       id="g28"
       transform="translate(492.7129,725.1709)"><path
         d="m 0,0 c -3.559,2.104 -7.439,3.154 -11.646,3.154 -3.184,0 -6.122,-0.539 -8.817,-1.617 -2.697,-1.079 -5.002,-2.617 -6.916,-4.61 -1.914,-1.996 -3.383,-4.356 -4.408,-7.078 -1.026,-2.723 -1.537,-5.648 -1.537,-8.776 0,-3.236 0.541,-6.216 1.617,-8.938 1.08,-2.723 2.602,-5.069 4.572,-7.037 1.967,-1.971 4.244,-3.477 6.834,-4.528 2.588,-1.051 5.34,-1.578 8.25,-1.578 2.104,0 4.34,0.256 6.713,0.768 2.371,0.513 4.233,1.172 5.582,1.982 l 0.485,-7.846 c -1.887,-0.81 -3.952,-1.348 -6.186,-1.619 -2.24,-0.269 -4.465,-0.404 -6.676,-0.404 -4.422,0 -8.463,0.689 -12.133,2.064 -3.666,1.374 -6.818,3.356 -9.463,5.944 -2.64,2.588 -4.666,5.701 -6.064,9.344 -1.404,3.638 -2.103,7.668 -2.103,12.09 0,4.26 0.728,8.184 2.183,11.77 1.457,3.584 3.527,6.658 6.227,9.22 2.697,2.562 5.879,4.53 9.543,5.904 3.67,1.377 7.632,2.063 11.892,2.063 4.799,0 9.031,-0.809 12.699,-2.426 z"
         style="fill:#1d4d99;fill-opacity:1;fill-rule:nonzero;stroke:none"
         id="path30" /></g><g
       id="g32"
       transform="translate(393.375,667.2803)"><path
         d="m 0,0 c -0.365,-1.006 -1.475,-1.522 -2.479,-1.156 -1,0.361 -1.517,1.472 -1.15,2.473 0.363,0.999 1.473,1.523 2.475,1.154 C -0.154,2.105 0.361,0.997 0,0 m 26.064,68.847 c -1.052,0 -1.906,-0.854 -1.906,-1.907 0,-0.646 0.324,-1.216 0.817,-1.561 L -1.293,3.637 c -1.436,0.26 -2.889,-0.533 -3.406,-1.951 -0.576,-1.585 0.238,-3.332 1.822,-3.907 1.582,-0.576 3.332,0.239 3.91,1.821 0.504,1.393 -0.068,2.916 -1.293,3.654 l 26.287,61.784 c 0.014,-10e-4 0.024,-0.004 0.037,-0.004 1.055,0 1.909,0.854 1.909,1.906 0,1.053 -0.854,1.907 -1.909,1.907"
         style="fill:#1d4d99;fill-opacity:1;fill-rule:nonzero;stroke:none"
         id="path34" /></g><g
       id="g36"
       transform="translate(503.1602,741.106)"><path
         d="M 0,0 C -1.002,0.364 -1.52,1.473 -1.156,2.474 -0.789,3.475 0.318,3.997 1.32,3.629 2.324,3.264 2.84,2.157 2.475,1.157 2.109,0.152 1.004,-0.366 0,0 m 5.996,-72.517 c 0.363,1 1.473,1.521 2.475,1.154 1,-0.367 1.515,-1.472 1.154,-2.47 -0.365,-1.006 -1.477,-1.524 -2.479,-1.159 -1.001,0.364 -1.517,1.474 -1.15,2.475 m 21.809,58.767 v 7.117 H 1.176 v 5.444 c 1.033,0.187 1.947,0.89 2.33,1.947 C 4.084,2.34 3.268,4.09 1.686,4.667 0.102,5.241 -1.648,4.428 -2.223,2.844 c -0.576,-1.585 0.239,-3.333 1.823,-3.91 0.168,-0.061 0.337,-0.099 0.507,-0.129 v -5.831 -0.129 -10.608 -44.117 -0.231 c 0.018,-1.154 0.524,-2.018 1.25,-3.287 l 4.069,-5.855 c -0.205,-0.254 -0.383,-0.538 -0.5,-0.861 -0.576,-1.583 0.238,-3.331 1.822,-3.907 1.582,-0.576 3.332,0.24 3.91,1.823 0.572,1.581 -0.24,3.331 -1.822,3.907 -0.924,0.336 -1.895,0.189 -2.666,-0.296 l -4.012,5.943 c -0.344,0.549 -0.578,1.066 -0.72,1.553 h 26.367 v 7.117 H 4.27 v 18.604 h 21.433 v 7.118 H 4.27 v 16.502 z"
         style="fill:#1d4d99;fill-opacity:1;fill-rule:nonzero;stroke:none"
         id="path38" /></g><g
       id="g40"
       transform="translate(314.9629,739.8262)"><path
         d="m 0,0 c -1.113,0 -2.018,-0.903 -2.018,-2.017 0,-0.465 0.164,-0.888 0.43,-1.229 l -22.141,-22.485 v 20.378 h -8.091 v -28.594 l -0.556,-0.565 c -0.633,-0.661 -1.077,-1.732 -1.091,-2.648 v -24.167 c 0,0 0.126,-0.485 0.517,-0.485 0.443,-0.011 0.567,0.504 0.567,0.504 v 24.184 c -0.018,0.586 0.406,1.602 0.829,2.003 l 30.769,31.247 c 0.24,-0.102 0.506,-0.158 0.785,-0.158 1.113,0 2.016,0.903 2.016,2.015 C 2.016,-0.903 1.113,0 0,0"
         style="fill:#1d4d99;fill-opacity:1;fill-rule:nonzero;stroke:none"
         id="path42" /></g><g
       id="g44"
       transform="translate(287.7144,669.7705)"><path
         d="M 0,0 C 1.002,-0.365 1.518,-1.475 1.154,-2.471 0.79,-3.477 -0.319,-3.994 -1.321,-3.628 -2.323,-3.266 -2.839,-2.154 -2.475,-1.154 -2.11,-0.154 -1.002,0.369 0,0 m 33.924,71.318 c -1.004,0.365 -1.519,1.474 -1.156,2.475 0.367,1.001 1.475,1.521 2.477,1.155 1.002,-0.366 1.517,-1.472 1.152,-2.472 -0.365,-1.004 -1.471,-1.523 -2.473,-1.158 M 12.274,38.01 38.803,64.703 h -8.094 l 3.362,3.453 c 0.471,0.489 0.834,1.223 1.002,1.97 1.043,0.179 1.969,0.884 2.357,1.952 0.576,1.58 -0.238,3.33 -1.822,3.907 -1.584,0.576 -3.334,-0.238 -3.906,-1.822 -0.577,-1.584 0.236,-3.333 1.82,-3.91 0.143,-0.052 0.287,-0.08 0.432,-0.109 -0.155,-0.491 -0.412,-0.977 -0.666,-1.213 L -0.09,34.625 C -0.745,33.942 -1.194,32.852 -1.209,31.91 V 1.163 C -2.245,0.979 -3.158,0.276 -3.542,-0.785 -4.119,-2.371 -3.304,-4.117 -1.721,-4.692 -0.14,-5.268 1.61,-4.453 2.188,-2.871 2.763,-1.289 1.948,0.463 0.365,1.038 0.208,1.096 0.048,1.129 -0.111,1.159 V 8.244 H 3.944 V 35.907 L 29.098,8.244 h 11.809 z"
         style="fill:#1d4d99;fill-opacity:1;fill-rule:nonzero;stroke:none"
         id="path46" /></g><g
       id="g48"
       transform="translate(171.6055,689.2178)"><path
         d="m 0,0 c -0.728,-1.214 -1.726,-2.144 -2.992,-2.792 -1.268,-0.646 -2.711,-1.105 -4.328,-1.375 -1.618,-0.271 -3.425,-0.405 -5.42,-0.405 h -6.066 v 19.091 h 5.258 c 2.048,0 3.895,-0.123 5.541,-0.365 1.644,-0.243 3.154,-0.716 4.528,-1.413 1.376,-0.704 2.48,-1.729 3.317,-3.075 C 0.675,8.317 1.092,6.617 1.092,4.57 1.092,2.735 0.728,1.212 0,0 m -18.806,38.622 h 8.493 c 1.293,0 2.549,-0.135 3.761,-0.405 1.214,-0.269 2.32,-0.715 3.317,-1.334 0.996,-0.621 1.805,-1.484 2.427,-2.589 0.618,-1.106 0.93,-2.465 0.93,-4.084 0,-1.996 -0.365,-3.612 -1.092,-4.853 -0.728,-1.241 -1.754,-2.157 -3.074,-2.75 -1.322,-0.594 -2.791,-0.984 -4.408,-1.173 -1.618,-0.19 -3.586,-0.282 -5.905,-0.282 h -4.449 z m 5.283,-56.017 c 1.002,-0.365 1.52,-1.474 1.155,-2.471 -0.366,-1.006 -1.474,-1.523 -2.477,-1.156 -1.002,0.362 -1.518,1.471 -1.154,2.473 0.02,0.052 0.048,0.097 0.071,0.147 0.16,0.343 0.407,0.621 0.709,0.814 0.489,0.313 1.109,0.409 1.696,0.193 m -10.799,69.327 c -1.001,0.365 -1.519,1.474 -1.155,2.475 0.366,1.001 1.474,1.521 2.476,1.154 1.003,-0.365 1.52,-1.473 1.155,-2.471 -0.366,-1.005 -1.474,-1.524 -2.476,-1.158 M 6.066,13.305 c -2.399,2.427 -5.567,3.802 -9.504,4.127 v 0.162 c 3.774,0.914 6.66,2.452 8.655,4.609 1.994,2.156 2.993,5.096 2.993,8.816 0,4.961 -1.739,8.574 -5.216,10.838 -3.478,2.266 -8.347,3.398 -14.601,3.398 h -11.489 v 5.46 c 1.013,0.2 1.903,0.899 2.283,1.94 0.577,1.582 -0.24,3.331 -1.823,3.908 -1.584,0.575 -3.333,-0.238 -3.908,-1.823 -0.576,-1.584 0.239,-3.332 1.823,-3.909 0.18,-0.065 0.362,-0.107 0.543,-0.138 V -8.313 c 0.022,-1.091 0.551,-2.365 1.304,-3.151 l 6.098,-6.094 c -0.114,-0.181 -0.214,-0.376 -0.29,-0.587 -0.576,-1.584 0.239,-3.331 1.823,-3.908 1.582,-0.574 3.33,0.24 3.907,1.823 0.576,1.582 -0.239,3.334 -1.822,3.91 -1.012,0.367 -2.089,0.163 -2.886,-0.443 l -5.559,5.56 h 9.753 c 3.073,0 5.892,0.227 8.453,0.687 2.561,0.457 4.824,1.254 6.793,2.387 1.969,1.131 3.506,2.684 4.612,4.651 1.104,1.968 1.658,4.41 1.658,7.32 0,3.882 -1.201,7.037 -3.6,9.463"
         style="fill:#1d4d99;fill-opacity:1;fill-rule:nonzero;stroke:none"
         id="path50" /></g><g
       id="g52"
       transform="translate(265.1709,742.2471)"><path
         d="M 0,0 C -0.366,-1.004 -1.475,-1.523 -2.478,-1.158 -3.479,-0.793 -3.996,0.316 -3.63,1.317 -3.266,2.318 -2.159,2.84 -1.156,2.473 -0.152,2.106 0.364,1 0,0 M -0.79,3.509 C -2.375,4.085 -4.125,3.271 -4.699,1.687 -4.746,1.557 -4.769,1.426 -4.798,1.295 H -43.52 c -1.097,-0.019 -2.38,-0.552 -3.17,-1.311 l -2.347,-2.772 c -0.761,-0.786 -1.369,-2.183 -1.386,-3.275 0,0 -0.054,-0.483 -0.034,-0.918 0.019,-0.436 0.16,-1.123 0.16,-1.123 l 26.913,-65.817 c -0.469,-0.348 -0.778,-0.901 -0.778,-1.53 0,-1.051 0.854,-1.906 1.907,-1.906 1.052,0 1.906,0.855 1.906,1.906 0,1.053 -0.854,1.908 -1.906,1.908 -0.032,0 -0.061,-0.008 -0.091,-0.01 -4.54,11.076 -26.69,65.125 -26.858,65.656 -0.209,0.659 -0.161,1.7 -0.161,1.7 -0.016,0.698 0.586,2.156 1.1,2.638 l 2.347,2.772 c 0.479,0.507 1.701,1.014 2.398,0.991 h 38.683 c 0.157,-1.072 0.869,-2.029 1.961,-2.427 1.581,-0.574 3.333,0.242 3.911,1.825 0.574,1.58 -0.242,3.33 -1.825,3.907"
         style="fill:#1d4d99;fill-opacity:1;fill-rule:nonzero;stroke:none"
         id="path54" /></g><g
       id="g56"
       transform="translate(414.3066,698.8838)"><path
         d="M 0,0 11.244,27.986 22.488,0 Z m 11.975,44.692 c 0.363,1.001 1.47,1.522 2.472,1.155 1.004,-0.366 1.518,-1.472 1.155,-2.472 -0.293,-0.807 -1.067,-1.291 -1.879,-1.265 -0.2,0.007 -0.401,0.035 -0.596,0.107 -0.166,0.061 -0.314,0.147 -0.451,0.245 -0.692,0.491 -1.006,1.395 -0.701,2.23 m 3.798,-9.103 h -4.812 c 0.873,2.06 1.652,3.901 2.299,5.428 1.424,-0.242 2.863,0.553 3.375,1.96 0.574,1.58 -0.239,3.33 -1.821,3.907 -1.585,0.576 -3.334,-0.238 -3.908,-1.822 -0.511,-1.406 0.074,-2.936 1.319,-3.667 -6.598,-15.605 -26.563,-62.85 -26.6,-63.069 -0.045,-0.262 -0.084,-0.932 -0.084,-0.932 l 0.027,-0.849 c 0.016,-1.089 0.598,-2.376 1.36,-3.167 l 3.564,-3.524 c 0.791,-0.758 2.072,-1.29 3.172,-1.312 H 9.941 c 0.231,-0.792 0.955,-1.376 1.823,-1.376 1.052,0 1.906,0.855 1.906,1.906 0,1.053 -0.854,1.908 -1.906,1.908 -0.856,0 -1.573,-0.57 -1.813,-1.347 H -6.336 c -0.697,-0.022 -1.92,0.483 -2.398,0.992 l -3.567,3.525 c -0.513,0.482 -1.012,1.797 -0.992,2.491 0,0 -0.066,1.042 0.055,1.529 0.008,0.032 0.152,0.386 0.39,0.963 h 4.518 l 5.74,14.234 h 27.666 l 5.742,-14.234 h 8.817 z"
         style="fill:#1d4d99;fill-opacity:1;fill-rule:nonzero;stroke:none"
         id="path58" /></g><g
       id="g60"
       transform="translate(503.2891,672.6855)"><path
         d="m 0,0 c -0.172,0 -0.338,-0.03 -0.496,-0.074 l -2.371,3.678 c -0.467,0.743 -0.963,1.84 -0.947,2.578 v 0.357 51.363 3.154 c 0,0 -0.124,0.733 -0.53,0.733 -0.324,0 -0.47,-0.494 -0.515,-0.705 -0.01,-0.048 -0.022,-0.495 -0.022,-0.495 V 57.902 6.182 C -4.865,5.026 -4.395,3.88 -3.668,2.833 l 2.23,-3.502 c -0.289,-0.335 -0.468,-0.764 -0.468,-1.238 0,-1.053 0.853,-1.907 1.906,-1.907 1.053,0 1.906,0.854 1.906,1.907 C 1.906,-0.856 1.053,0 0,0"
         style="fill:#1d4d99;fill-opacity:1;fill-rule:nonzero;stroke:none"
         id="path62" /></g><g
       id="g64"
       transform="translate(150.5107,668.6143)"><path
         d="m 0,0 v 0.125 c 0,0.168 -0.029,0.584 -0.067,0.746 0,0 -0.471,1.609 -1.073,2.449 -0.122,0.17 -0.258,0.357 -0.378,0.474 l -4.091,4.093 c -0.119,0.115 -0.356,0.474 -0.441,0.617 0,0 -0.2,0.318 -0.346,0.654 -0.174,0.401 -0.301,0.836 -0.34,0.994 -0.07,0.289 -0.112,0.825 -0.112,0.99 l 0.003,54.026 c 0,0.167 -0.271,0.7 -0.556,0.7 -0.285,0 -0.56,-0.533 -0.56,-0.7 V 11.07 c 0,-0.165 0.024,-0.525 0.069,-0.812 0.049,-0.31 0.201,-0.871 0.457,-1.474 0.16,-0.373 0.382,-0.762 0.578,-1.114 0.081,-0.147 0.258,-0.354 0.375,-0.475 l 4.165,-4.127 c 0.119,-0.117 0.153,-0.121 0.406,-0.511 0.253,-0.391 0.795,-1.832 0.795,-1.832 0.04,-0.162 0.074,-0.432 0.074,-0.6 v -0.137 c -0.789,-0.234 -1.368,-0.958 -1.368,-1.82 0,-1.053 0.853,-1.907 1.907,-1.907 1.054,0 1.908,0.854 1.908,1.907 C 1.405,-0.956 0.808,-0.223 0,0"
         style="fill:#1d4d99;fill-opacity:1;fill-rule:nonzero;stroke:none"
         id="path66" /></g><g
       id="g68"
       transform="translate(197.9116,698.8838)"><path
         d="M 0,0 11.244,27.986 22.486,0 Z M 9.512,42.158 C 9.314,42.086 9.113,42.058 8.914,42.051 8.103,42.024 7.33,42.508 7.037,43.313 c -0.365,1 0.151,2.11 1.153,2.474 1.003,0.366 2.111,-0.153 2.477,-1.158 C 10.972,43.795 10.655,42.892 9.96,42.401 9.822,42.305 9.677,42.219 9.512,42.158 m 27.931,-66.867 c -0.057,0 -0.11,-0.012 -0.166,-0.016 l -26.906,66.12 c 1.249,0.73 1.841,2.264 1.328,3.669 -0.576,1.583 -2.325,2.399 -3.907,1.824 -1.584,-0.576 -2.399,-2.325 -1.823,-3.909 0.51,-1.405 1.943,-2.198 3.364,-1.96 l 2.21,-5.43 H 7.28 l -24.103,-56.456 h 8.492 l 5.743,14.234 h 27.663 l 5.742,-14.234 h 3.7 l 1.737,-4.269 c -0.435,-0.35 -0.719,-0.881 -0.719,-1.481 0,-1.051 0.854,-1.906 1.908,-1.906 1.054,0 1.908,0.855 1.908,1.906 0,1.052 -0.854,1.908 -1.908,1.908"
         style="fill:#1d4d99;fill-opacity:1;fill-rule:nonzero;stroke:none"
         id="path70" /></g><g
       id="g72"
       transform="translate(395.7266,713.0381)"><path
         d="m 0,0 c -0.676,-1.294 -1.564,-2.333 -2.672,-3.114 -1.105,-0.782 -2.318,-1.349 -3.641,-1.698 -1.32,-0.352 -2.652,-0.526 -4.001,-0.526 h -8.008 v 19.654 h 6.875 c 1.347,0 2.75,-0.189 4.207,-0.566 1.457,-0.377 2.802,-0.943 4.045,-1.698 1.238,-0.756 2.25,-1.767 3.033,-3.032 C 0.619,7.751 1.01,6.282 1.01,4.609 1.01,2.831 0.672,1.295 0,0 m -27.988,29.215 c -0.366,1 0.15,2.107 1.152,2.473 1.004,0.367 2.111,-0.154 2.477,-1.155 0.363,-1.001 -0.155,-2.111 -1.157,-2.474 -1,-0.367 -2.109,0.152 -2.472,1.156 m -11.334,-76.156 c -1.002,-0.366 -2.11,0.152 -2.475,1.156 -0.365,1 0.151,2.107 1.156,2.472 1,0.367 2.106,-0.152 2.473,-1.154 0.365,-1.002 -0.152,-2.112 -1.154,-2.474 M 7.967,12.497 c -1.08,2.184 -2.588,3.923 -4.531,5.216 -1.942,1.296 -4.165,2.238 -6.672,2.833 -2.51,0.591 -5.299,0.89 -8.373,0.89 h -14.049 v 5.428 c 0.172,0.03 0.342,0.067 0.51,0.128 1.584,0.577 2.396,2.326 1.82,3.91 -0.574,1.584 -2.322,2.398 -3.906,1.822 -1.584,-0.576 -2.401,-2.326 -1.823,-3.907 0.385,-1.057 1.297,-1.76 2.33,-1.947 V 20.132 20.001 9.395 -34.724 -34.953 c 0.022,-0.738 -0.353,-1.674 -0.945,-2.693 0,0 -2.955,-4.625 -3.267,-5.073 -0.311,-0.449 -0.92,-0.945 -0.92,-0.945 -0.407,-0.421 -2.223,-1.141 -2.803,-1.117 l -2.317,-0.015 c -0.025,0.246 -0.07,0.491 -0.158,0.734 -0.574,1.585 -2.324,2.398 -3.908,1.824 -1.582,-0.578 -2.396,-2.326 -1.82,-3.908 0.576,-1.583 2.328,-2.4 3.906,-1.825 1.008,0.367 1.699,1.207 1.924,2.177 l 2.394,10e-4 c 0.952,0.007 2.121,0.494 2.948,0.934 1.111,0.589 1.777,1.8 2.439,2.801 0.649,0.98 2.176,3.383 2.315,3.609 0.787,1.285 1.238,2.299 1.275,3.428 h 7.342 v 22.565 h 7.927 c 2.698,0 5.229,0.31 7.602,0.929 2.373,0.621 4.49,1.605 6.35,2.953 1.861,1.347 3.33,3.114 4.41,5.298 1.076,2.184 1.617,4.786 1.617,7.805 0,3.128 -0.541,5.784 -1.617,7.968"
         style="fill:#1d4d99;fill-opacity:1;fill-rule:nonzero;stroke:none"
         id="path74" /></g><g
       id="g76"
       transform="translate(122.6187,671.0342)"><path
         d="m 0,0 -46.895,-0.054 c -0.582,-0.025 -1.908,-0.024 -2.63,0.57 -0.722,0.593 -0.813,0.743 -1.118,1.119 -0.305,0.375 -3.101,4.463 -3.101,4.463 -0.592,1.019 -0.999,1.956 -0.983,2.69 v 0.231 25.383 6.535 0.13 2.442 c 0.856,0.233 1.488,1.01 1.488,1.937 0,1.115 -0.901,2.019 -2.016,2.019 -1.115,0 -2.017,-0.904 -2.017,-2.019 0,-0.925 0.628,-1.698 1.48,-1.935 V 41.067 40.937 34.402 9.019 8.788 c 0.017,-1.153 0.544,-2.385 1.353,-3.494 0.143,-0.222 0.285,-0.442 0.427,-0.662 0.642,-0.984 1.174,-1.665 1.821,-2.644 0.662,-0.999 1.324,-2.008 2.432,-2.597 0.829,-0.44 1.929,-0.451 2.881,-0.457 L 0.01,-1.07 c 0,0 0.87,-0.035 0.87,0.543 C 0.88,0.049 0,0 0,0"
         style="fill:#1d4d99;fill-opacity:1;fill-rule:nonzero;stroke:none"
         id="path78" /></g><g
       id="g80"
       transform="translate(130.894,725.9258)"><path
         d="m 0,0 c -0.318,-0.872 -1.153,-1.418 -2.037,-1.318 -0.058,0.005 -0.35,0.075 -0.421,0.101 -0.115,0.042 -0.221,0.096 -0.323,0.156 l -14.901,-15.583 -1.76,-1.839 c 0.17,-0.352 0.234,-0.744 0.181,-1.124 -0.048,-0.401 -0.217,-0.789 -0.517,-1.104 -0.744,-0.777 -1.977,-0.805 -2.756,-0.059 -0.779,0.744 -0.803,1.978 -0.06,2.756 0.638,0.668 1.603,0.849 2.366,0.395 l 1.757,1.8 14.884,15.568 C -3.842,0.225 -3.91,0.798 -3.711,1.346 -3.337,2.372 -2.205,2.903 -1.179,2.529 -1.163,2.524 -1.15,2.514 -1.134,2.508 -0.143,2.117 0.367,1.007 0,0 m -7.2,-41.46 c -0.125,-0.119 -0.286,-0.179 -0.446,-0.179 -0.172,0 -0.344,0.068 -0.472,0.203 l -19.847,20.942 -19.848,-20.942 c -0.127,-0.135 -0.299,-0.203 -0.471,-0.203 -0.161,0 -0.321,0.06 -0.447,0.179 -0.261,0.246 -0.271,0.658 -0.024,0.918 l 19.895,20.993 -19.895,20.991 c -0.247,0.26 -0.236,0.671 0.025,0.918 0.259,0.248 0.669,0.238 0.918,-0.025 l 19.847,-20.94 19.846,20.94 C -7.871,2.598 -7.46,2.608 -7.2,2.36 -6.939,2.113 -6.928,1.702 -7.176,1.442 L -27.07,-19.549 -7.175,-40.542 c 0.247,-0.26 0.236,-0.672 -0.025,-0.918 m -44.636,2.539 c 10e-4,-0.01 0.004,-0.021 0.005,-0.033 0.009,-0.111 0.002,-0.225 -0.009,-0.338 -0.002,-0.024 0,-0.048 -0.004,-0.072 -0.017,-0.135 -0.05,-0.27 -0.098,-0.403 -0.374,-1.025 -1.507,-1.556 -2.532,-1.183 -1.024,0.373 -1.552,1.507 -1.18,2.53 0.151,0.412 0.428,0.739 0.768,0.966 0.117,0.077 0.244,0.141 0.375,0.192 0.021,0.008 0.042,0.015 0.063,0.023 0.112,0.039 0.226,0.067 0.343,0.087 0.034,0.005 0.068,0.011 0.103,0.014 0.108,0.013 0.218,0.012 0.328,0.006 0.039,-0.003 0.078,-0.001 0.116,-0.006 0.145,-0.017 0.254,-0.049 0.398,-0.1 0.1,-0.037 0.209,-0.108 0.3,-0.158 l 14.709,15.381 1.748,1.827 c -0.351,0.704 -0.225,1.537 0.35,2.137 0.731,0.764 1.944,0.791 2.709,0.058 0.766,-0.732 0.79,-1.945 0.059,-2.709 -0.624,-0.654 -1.553,-0.805 -2.302,-0.365 l -1.716,-1.795 -14.721,-15.395 c 0.098,-0.209 0.166,-0.431 0.188,-0.664 M -0.771,3.654 c -0.121,0.044 -0.242,0.064 -0.363,0.092 v 1.312 c 0,1.923 -1.56,3.484 -3.484,3.484 h -46.788 c -1.924,0 -3.482,-1.561 -3.482,-3.484 v -41.29 c -0.831,-0.306 -1.531,-0.949 -1.858,-1.846 -0.587,-1.618 0.245,-3.407 1.864,-3.997 0.34,-0.123 0.687,-0.171 1.03,-0.174 0.493,-0.68 3.436,-4.738 3.77,-5.075 0.366,-0.368 1.078,-0.566 1.915,-0.572 h 43.549 c 1.924,0 3.484,1.561 3.484,3.483 v 42.106 c 0.992,0.23 1.852,0.936 2.226,1.965 0.588,1.618 -0.245,3.406 -1.863,3.996"
         style="fill:#1d4d99;fill-opacity:1;fill-rule:nonzero;stroke:none"
         id="path82" /></g><g
       id="g84"
       transform="translate(69.9736,738.7568)"><path
         d="M 0,0 C 0.366,1.001 1.473,1.522 2.475,1.156 3.478,0.789 3.995,-0.317 3.63,-1.317 3.265,-2.322 2.156,-2.841 1.154,-2.474 0.152,-2.11 -0.364,-1 0,0 m 62.381,-62.361 c -0.922,0 -1.691,-0.623 -1.931,-1.469 l -50.289,-0.053 c -0.582,-0.025 -2.117,0.013 -2.908,0.744 -0.579,0.535 -3.94,5.407 -3.94,5.407 -0.594,1.02 -1,1.957 -0.983,2.694 v 0.229 40.656 6.535 0.13 3.789 c 1.034,0.186 1.947,0.889 2.333,1.948 0.071,0.195 0.121,0.393 0.15,0.59 h 42.634 c 0.66,0.013 1.377,0.227 2.022,0.55 0.333,-0.286 0.762,-0.466 1.237,-0.466 1.054,0 1.906,0.855 1.906,1.908 0,1.051 -0.852,1.905 -1.906,1.905 -1.055,0 -1.909,-0.854 -1.909,-1.905 0,-0.185 0.035,-0.36 0.084,-0.53 -0.496,-0.228 -1.044,-0.392 -1.434,-0.384 L 4.773,-0.078 C 4.561,0.915 3.867,1.782 2.841,2.156 1.255,2.732 -0.492,1.918 -1.067,0.334 -1.644,-1.25 -0.829,-3 0.756,-3.576 0.924,-3.637 1.094,-3.674 1.264,-3.704 v -3.784 -0.13 -6.535 -40.656 -0.229 c 0.016,-1.157 0.544,-2.388 1.353,-3.497 0.142,-0.222 0.284,-0.441 0.427,-0.661 0.642,-0.984 1.175,-1.665 1.821,-2.644 0.662,-1 1.323,-2.006 2.432,-2.597 0.829,-0.439 1.929,-0.452 2.88,-0.458 l 50.262,-0.003 c 0.23,-0.862 1.009,-1.498 1.942,-1.498 1.116,0 2.015,0.902 2.015,2.015 0,1.114 -0.899,2.02 -2.015,2.02"
         style="fill:#1d4d99;fill-opacity:1;fill-rule:nonzero;stroke:none"
         id="path86" /></g></g></g>

</g></svg>
