<?xml version="1.0" encoding="UTF-8" standalone="no"?>
<!-- Created with Inkscape (http://www.inkscape.org/) -->

<svg
   xmlns:dc="http://purl.org/dc/elements/1.1/"
   xmlns:cc="http://creativecommons.org/ns#"
   xmlns:rdf="http://www.w3.org/1999/02/22-rdf-syntax-ns#"
   xmlns:svg="http://www.w3.org/2000/svg"
   xmlns="http://www.w3.org/2000/svg"
   xmlns:sodipodi="http://sodipodi.sourceforge.net/DTD/sodipodi-0.dtd"
   xmlns:inkscape="http://www.inkscape.org/namespaces/inkscape"
   width="600"
   height="100"
   id="svg3564"
   version="1.1"
   inkscape:version="0.92.2 5c3e80d, 2017-08-06"
   sodipodi:docname="schriftzug-path-lg.svg"
   inkscape:export-filename="/home/siena/Documents/mfdz/schriftzug-path.png"
   inkscape:export-xdpi="963.06714"
   inkscape:export-ydpi="963.06714">
  <defs
     id="defs3566" />
  <sodipodi:namedview
     id="base"
     pagecolor="#ffffff"
     bordercolor="#666666"
     borderopacity="1.0"
     inkscape:pageopacity="1"
     inkscape:pageshadow="2"
     inkscape:zoom="2.8"
     inkscape:cx="300.66736"
     inkscape:cy="37.342276"
     inkscape:document-units="px"
     inkscape:current-layer="text3379-5-0"
     showgrid="false"
     inkscape:window-width="1680"
     inkscape:window-height="913"
     inkscape:window-x="152"
     inkscape:window-y="8"
     inkscape:window-maximized="0"
     fit-margin-top="25"
     fit-margin-left="10"
     fit-margin-right="10"
     fit-margin-bottom="25" />
  <metadata
     id="metadata3569">
    <rdf:RDF>
      <cc:Work
         rdf:about="">
        <dc:format>image/svg+xml</dc:format>
        <dc:type
           rdf:resource="http://purl.org/dc/dcmitype/StillImage" />
        <dc:title></dc:title>
      </cc:Work>
    </rdf:RDF>
  </metadata>
  <g
     inkscape:label="Layer 1"
     inkscape:groupmode="layer"
     id="layer1"
     transform="translate(-123.8816,-463.7162)">
    <g
       style="font-size:12px;font-style:normal;font-variant:normal;font-weight:normal;font-stretch:normal;line-height:125%;letter-spacing:0px;word-spacing:0px;fill:#000000;fill-opacity:1;stroke:none;font-family:Droid Sans;-inkscape-font-specification:Droid Sans"
       id="text3379-5-0">
      <path
         d="m 175.82063,529.93395 -0.70801,-9.78338 -1.73784,-14.80381 -0.38618,0 -9.20411,20.98279 -3.7975,0 -8.68919,-20.98279 -0.38618,0 -1.67348,14.41762 -0.9011,10.16957 -4.11932,0 3.54004,-32.05346 5.5997,0 1.60911,4.82733 7.01572,17.24965 0.38619,0 7.33753,-17.50711 1.67348,-4.56987 5.47097,0 3.28258,32.05346 -4.31241,0"
         style="font-family:Alegreya Sans SC;-inkscape-font-specification:Alegreya Sans SC"
         id="path3601"
         inkscape:connector-curvature="0" />
      <path
         d="m 194.782,529.93395 -4.76296,0 0.19309,-9.65465 -0.19309,-22.39881 4.82733,0 -0.1931,22.01262 0.12873,10.04084"
         style="font-family:Alegreya Sans SC;-inkscape-font-specification:Alegreya Sans SC"
         id="path3603"
         inkscape:connector-curvature="0" />
      <path
         d="m 226.69166,502.32163 -5.98588,-0.45055 -3.21822,0 -0.1931,18.02203 0.1931,10.04084 -4.82733,0 0.19309,-9.65465 -0.12873,-18.40822 -3.21822,0 -6.11461,0.45055 -0.38619,-0.45055 0.38619,-3.99059 23.36427,0 0.25745,0.38619 -0.32182,4.05495"
         style="font-family:Alegreya Sans SC;-inkscape-font-specification:Alegreya Sans SC"
         id="path3605"
         inkscape:connector-curvature="0" />
      <path
         d="m 239.2749,512.36248 5.53534,0.0644 5.66406,-0.19309 0.32182,0.45055 -0.32182,3.66877 -6.11461,-0.0644 -5.14915,0.0644 0,3.54004 0.12872,10.04084 -4.76296,0 0.12873,-9.65465 -0.12873,-22.39881 18.66567,0 0.25746,0.38619 -0.38619,3.73313 -7.91682,-0.25746 -5.85716,0.0644 -0.0644,10.55576"
         style="font-family:Alegreya Sans SC;-inkscape-font-specification:Alegreya Sans SC"
         id="path3607"
         inkscape:connector-curvature="0" />
      <path
         d="m 278.30079,529.93395 -0.77237,-3.47567 -1.67347,-4.76297 -7.65936,-0.0644 -6.82263,0.0644 -1.73784,4.50551 -0.9011,3.73313 -4.76296,0 12.35796,-32.05346 5.53534,0 11.26376,32.05346 -4.82733,0 m -9.13974,-27.35486 -0.38618,0 -5.85716,15.18999 5.66406,0.0644 5.92153,-0.0644 -5.34225,-15.18999"
         style="font-family:Alegreya Sans SC;-inkscape-font-specification:Alegreya Sans SC"
         id="path3609"
         inkscape:connector-curvature="0" />
      <path
         d="m 317.86681,529.93395 -4.76296,0 0.19309,-9.65465 -0.0644,-4.37678 -17.44275,0.0644 -0.0644,3.92623 0.12872,10.04084 -4.76296,0 0.19309,-9.65465 -0.19309,-22.39881 4.82733,0 -0.12873,13.77398 8.68919,0.0644 8.75356,-0.0644 -0.12873,-13.77398 4.82733,0 -0.1931,22.01262 0.12873,10.04084"
         style="font-family:Alegreya Sans SC;-inkscape-font-specification:Alegreya Sans SC"
         id="path3611"
         inkscape:connector-curvature="0" />
      <path
         d="m 344.17275,516.99671 c 2.61743,3.99065 5.51383,7.91687 8.68919,11.77868 l -0.0644,0.64365 c -1.80226,0.55782 -3.28264,0.87964 -4.44115,0.96546 l -0.83673,-0.51491 c -3.26119,-4.93455 -5.72849,-8.81787 -7.40191,-11.64996 l -6.05025,0.0644 0,1.60911 0.12873,10.04084 -4.76296,0 0.19309,-9.65465 -0.19309,-22.39881 10.94194,-0.0644 c 3.3898,5e-5 5.98583,0.79388 7.78809,2.38148 1.84506,1.58771 2.76762,3.88337 2.76767,6.88699 -5e-5,2.18844 -0.60079,4.14083 -1.8022,5.85716 -1.15862,1.71643 -2.81064,3.06808 -4.95606,4.05495 m -3.99059,-2.51021 c 3.8189,-1.07269 5.72837,-3.41126 5.72843,-7.01572 -6e-5,-1.88796 -0.55788,-3.30398 -1.67348,-4.24805 -1.1157,-0.94395 -2.81063,-1.45887 -5.08478,-1.54474 l -4.95606,0.0644 -0.0644,12.55106 6.05025,0.19309"
         style="font-family:Alegreya Sans SC;-inkscape-font-specification:Alegreya Sans SC"
         id="path3613"
         inkscape:connector-curvature="0" />
      <path
         d="m 367.60739,511.39701 0,35.20732 -3.54004,0.19309 -0.45055,-0.51492 0,-34.56367 0.0644,-32.82583 3.66877,-0.25746 0.32183,0.32182 -0.0644,32.43965"
         style="font-family:Alegreya Sans SC;-inkscape-font-specification:Alegreya Sans SC"
         id="path3615"
         inkscape:connector-curvature="0" />
      <path
         d="m 394.15469,497.62303 c 4.89164,6e-5 8.62478,1.3088 11.19941,3.92623 2.61743,2.61754 3.92617,6.37213 3.92622,11.26377 -5e-5,5.62121 -1.41607,9.93362 -4.24805,12.93724 -2.83208,3.00367 -6.88704,4.5055 -12.16486,4.5055 -4.07641,0 -7.831,-0.10727 -11.26377,-0.32182 l 0.19309,-9.65465 -0.19309,-22.39881 12.55105,-0.25746 m -0.51491,28.70652 c 3.43271,5e-5 6.07165,-1.02978 7.91682,-3.08949 1.88797,-2.10252 2.83198,-5.25637 2.83203,-9.46157 -5e-5,-8.06695 -3.54009,-12.10045 -10.62012,-12.1005 -2.10257,5e-5 -4.56987,0.0858 -7.40191,0.25746 l -0.12872,17.95766 0.0644,6.05025 c 2.83203,0.25746 5.27788,0.38619 7.33754,0.38619"
         style="font-family:Alegreya Sans SC;-inkscape-font-specification:Alegreya Sans SC"
         id="path3617"
         inkscape:connector-curvature="0" />
      <path
         d="m 438.01296,526.20082 -0.45055,3.73313 -19.50241,0 0.19309,-9.65465 -0.19309,-22.39881 19.63114,0 0.32182,0.38619 -0.38619,3.73313 -8.10991,-0.25746 -6.6939,0.0644 -0.0644,9.71902 6.37207,0.0644 5.59971,-0.19309 0.32182,0.45055 -0.38619,3.7975 -5.92152,-0.19309 -5.98589,0.0644 -0.0644,4.37678 0.0644,6.11462 6.30771,0.0644 8.56046,-0.25746 0.38619,0.38619"
         style="font-family:Alegreya Sans SC;-inkscape-font-specification:Alegreya Sans SC"
         id="path3619"
         inkscape:connector-curvature="0" />
      <path
         d="m 455.0464,511.39701 0,35.20732 -3.54004,0.19309 -0.45055,-0.51492 0,-34.56367 0.0644,-32.82583 3.66877,-0.25746 0.32183,0.32182 -0.0644,32.43965"
         style="font-family:Alegreya Sans SC;-inkscape-font-specification:Alegreya Sans SC"
         id="path3621"
         inkscape:connector-curvature="0" />
      <path
         d="m 471.61717,526.13645 13.45216,0 5.34224,-0.51491 0.25746,0.32182 -0.38619,4.11932 -6.62953,-0.12873 -14.54635,0 -3.28258,0.12873 0,-3.47568 18.7944,-24.84465 -13.06597,0 -4.95606,0.51492 -0.25746,-0.38619 0.45055,-4.05495 5.7928,0.0644 14.9969,0 2.76767,-0.0644 0,3.6044 -18.73004,24.71592"
         style="font-family:Alegreya Sans SC;-inkscape-font-specification:Alegreya Sans SC"
         id="path3623"
         inkscape:connector-curvature="0" />
      <path
         d="m 519.29208,526.20082 -0.45055,3.73313 -19.5024,0 0.19309,-9.65465 -0.19309,-22.39881 19.63113,0 0.32182,0.38619 -0.38618,3.73313 -8.10991,-0.25746 -6.6939,0.0644 -0.0644,9.71902 6.37207,0.0644 5.5997,-0.19309 0.32182,0.45055 -0.38618,3.7975 -5.92153,-0.19309 -5.98588,0.0644 -0.0644,4.37678 0.0644,6.11462 6.30771,0.0644 8.56046,-0.25746 0.38618,0.38619"
         style="font-family:Alegreya Sans SC;-inkscape-font-specification:Alegreya Sans SC"
         id="path3625"
         inkscape:connector-curvature="0" />
      <path
         d="m 554.01967,529.93395 -5.14915,0 -16.86347,-24.45846 -0.32182,0 -0.0644,13.77398 0.12873,10.68448 -4.37678,0 0.19309,-9.46156 -0.12873,-22.5919 5.08479,0 16.86347,24.45847 0.45055,0 -0.12873,-24.26538 4.44114,-0.32182 -0.19309,22.5919 0.0644,9.59029"
         style="font-family:Alegreya Sans SC;-inkscape-font-specification:Alegreya Sans SC"
         id="path3627"
         inkscape:connector-curvature="0" />
      <path
         d="m 585.66785,502.32163 -5.98589,-0.45055 -3.21821,0 -0.1931,18.02203 0.1931,10.04084 -4.82733,0 0.19309,-9.65465 -0.12873,-18.40822 -3.21822,0 -6.11461,0.45055 -0.38619,-0.45055 0.38619,-3.99059 23.36427,0 0.25745,0.38619 -0.32182,4.05495"
         style="font-family:Alegreya Sans SC;-inkscape-font-specification:Alegreya Sans SC"
         id="path3629"
         inkscape:connector-curvature="0" />
      <path
         d="m 608.61375,516.99671 c 2.61749,3.99065 5.51389,7.91687 8.6892,11.77868 l -0.0644,0.64365 c -1.8022,0.55782 -3.28258,0.87964 -4.44114,0.96546 l -0.83674,-0.51491 c -3.26113,-4.93455 -5.72843,-8.81787 -7.4019,-11.64996 l -6.05025,0.0644 0,1.60911 0.12872,10.04084 -4.76296,0 0.19309,-9.65465 -0.19309,-22.39881 10.94195,-0.0644 c 3.38985,5e-5 5.98588,0.79388 7.78809,2.38148 1.84511,1.58771 2.76766,3.88337 2.76766,6.88699 0,2.18844 -0.60073,4.14083 -1.8022,5.85716 -1.15856,1.71643 -2.81058,3.06808 -4.95606,4.05495 m -3.99059,-2.51021 c 3.81896,-1.07269 5.72843,-3.41126 5.72843,-7.01572 0,-1.88796 -0.55782,-3.30398 -1.67347,-4.24805 -1.11565,-0.94395 -2.81058,-1.45887 -5.08479,-1.54474 l -4.95606,0.0644 -0.0644,12.55106 6.05025,0.19309"
         style="font-family:Alegreya Sans SC;-inkscape-font-specification:Alegreya Sans SC"
         id="path3631"
         inkscape:connector-curvature="0" />
      <path
         d="m 645.95116,529.93395 -0.77238,-3.47567 -1.67347,-4.76297 -7.65936,-0.0644 -6.82263,0.0644 -1.73783,4.50551 -0.90111,3.73313 -4.76296,0 12.35796,-32.05346 5.53534,0 11.26376,32.05346 -4.82732,0 m -9.13975,-27.35486 -0.38618,0 -5.85716,15.18999 5.66406,0.0644 5.92153,-0.0644 -5.34225,-15.18999"
         style="font-family:Alegreya Sans SC;-inkscape-font-specification:Alegreya Sans SC"
         id="path3633"
         inkscape:connector-curvature="0" />
      <path
         d="m 675.66937,529.93395 -17.05656,0 0.19309,-9.65465 -0.19309,-22.39881 4.82733,0 -0.1931,22.01262 0.12873,5.98589 12.35796,0 0.25746,0.45055 -0.32182,3.6044"
         style="font-family:Alegreya Sans SC;-inkscape-font-specification:Alegreya Sans SC"
         id="path3635"
         inkscape:connector-curvature="0" />
      <path
         d="m 702.95686,526.20082 -0.45055,3.73313 -19.5024,0 0.19309,-9.65465 -0.19309,-22.39881 19.63113,0 0.32182,0.38619 -0.38618,3.73313 -8.10991,-0.25746 -6.6939,0.0644 -0.0644,9.71902 6.37207,0.0644 5.5997,-0.19309 0.32182,0.45055 -0.38618,3.7975 -5.92153,-0.19309 -5.98588,0.0644 -0.0644,4.37678 0.0644,6.11462 6.30771,0.0644 8.56046,-0.25746 0.38618,0.38619"
         style="font-family:Alegreya Sans SC;-inkscape-font-specification:Alegreya Sans SC"
         id="path3637"
         inkscape:connector-curvature="0" />
    </g>
  </g>
</svg>
