<svg id="Ebene_1" data-name="Ebene 1" xmlns="http://www.w3.org/2000/svg" viewBox="0 0 282.44 157.14"><title>section77_logo_vector</title><path d="M439.1,389.5l-35.66-70.13v-.87H165V473.89H372.79V352.21H237.37l-40.12,40.87a9.09,9.09,0,1,0,2,2.29l39.42-40.17H369.79V470.89H168V321.5H401.15l34.58,68h-7.38L396.41,327,175.5,327V464.92h0v.86l188.48.64v-3h0V361H243.5v45.5H251v1.64a9,9,0,1,0,3,0V403.5h-7.5V364h46.25v44.1a9,9,0,1,0,3,.08V364H361v86.5H200.36a9,9,0,1,0,0,3H361v9.92l-182.5-.62V330H394.58L425,389.5h-6.71L389.91,335,198.5,335v10.06a9,9,0,1,0,7,15.61l7,8.65L231.69,347H382.52l22.29,42.5H398v3h49.44v-3ZM191.5,406a6,6,0,1,1,6-6A6,6,0,0,1,191.5,406Zm67,11a6,6,0,1,1-6-6A6,6,0,0,1,258.5,417Zm41.5,0a6,6,0,1,1-6-6A6,6,0,0,1,300,417ZM191.5,458a6,6,0,1,1,6-6A6,6,0,0,1,191.5,458Zm8-98a6,6,0,1,1,6-6A6,6,0,0,1,199.5,360Zm184.84-16h-154l-17.77,20.65-5.12-6.39a9,9,0,0,0-5.93-13V338H388.07l26.82,51.5H408.2Z" transform="translate(-165 -318.5)"/><rect x="237.07" y="79" width="45.37" height="3"/><rect x="246" y="87" width="33.5" height="3"/><rect x="250.5" y="95.71" width="29" height="3"/><rect x="399.77" y="388.8" width="3" height="36.07" transform="translate(-329.58 8.72) rotate(-37.39)"/><rect x="394.77" y="393.8" width="3" height="36.07" transform="translate(-333.65 6.71) rotate(-37.39)"/><rect x="244.5" y="110.5" width="3" height="46.64"/><rect x="252.79" y="104" width="3" height="53.14"/><rect x="260.79" y="104" width="3" height="53.14"/><rect x="269.79" y="104" width="3" height="53.14"/><path d="M219.7,434.3a30.82,30.82,0,0,1-13.52-3.36l-2.48,10c3,1.68,9.12,3.36,15.28,3.36,14.8,0,21.68-7.68,21.68-16.72,0-7.6-4.4-12.56-13.92-16.08-7-2.64-10-4.16-10-7.6,0-2.72,2.56-5.2,7.84-5.2a25.22,25.22,0,0,1,11.2,2.56l2.72-9.76a31.54,31.54,0,0,0-13.76-2.72c-12.64,0-20.4,7-20.4,16.16,0,7.84,5.92,12.8,14.88,16,6.48,2.24,9,4.16,9,7.52C228.26,432,225.3,434.3,219.7,434.3Z" transform="translate(-165 -318.5)"/><polygon points="88.69 125 101.58 125 123.02 80.68 123.02 73 86.3 73 86.3 83 110.14 83 110.14 83.16 88.69 125"/><polygon points="138.69 125 151.57 125 173.02 80.68 173.02 73 136.29 73 136.29 83 160.14 83 160.14 83.16 138.69 125"/></svg>