<?xml version="1.0" encoding="UTF-8" standalone="no"?>
<svg
   id="Ebene_1"
   data-name="Ebene 1"
   viewBox="0 0 377.44941 210.00024"
   version="1.1"
   sodipodi:docname="S77.svg"
   width="377.4494"
   height="210"
   inkscape:version="1.2 (1:1.2+202206011327+fc4e4096c5)"
   xmlns:inkscape="http://www.inkscape.org/namespaces/inkscape"
   xmlns:sodipodi="http://sodipodi.sourceforge.net/DTD/sodipodi-0.dtd"
   xmlns="http://www.w3.org/2000/svg"
   xmlns:svg="http://www.w3.org/2000/svg"
   xmlns:rdf="http://www.w3.org/1999/02/22-rdf-syntax-ns#"
   xmlns:cc="http://creativecommons.org/ns#"
   xmlns:dc="http://purl.org/dc/elements/1.1/">
  <defs
     id="defs33" />
  <sodipodi:namedview
     id="namedview31"
     pagecolor="#505050"
     bordercolor="#ffffff"
     borderopacity="1"
     inkscape:showpageshadow="0"
     inkscape:pageopacity="0"
     inkscape:pagecheckerboard="1"
     inkscape:deskcolor="#505050"
     showgrid="false"
     inkscape:zoom="2.3173063"
     inkscape:cx="120.18264"
     inkscape:cy="88.249015"
     inkscape:window-width="1920"
     inkscape:window-height="1020"
     inkscape:window-x="1920"
     inkscape:window-y="0"
     inkscape:window-maximized="1"
     inkscape:current-layer="Ebene_1" />
  <title
     id="title2">section77_logo_vector</title>
  <path
     d="m 321.60471,97.43012 -35.66,-70.13 v -0.87 H 47.504701 v 155.39 H 255.29471 v -121.68 h -135.42 l -40.120009,40.87 a 9.09,9.09 0 1 0 2,2.29 l 39.420009,-40.17 h 131.12 v 115.69 H 50.504701 v -149.39 H 283.65471 l 34.58,68 h -7.38 l -31.94,-62.5 H 58.004701 v 137.92 0 0.86 l 188.480009,0.64 v -3 0 -102.42 h -120.48 v 45.5 h 7.5 v 1.64 a 9,9 0 1 0 3,0 v -4.64 h -7.5 v -39.5 h 46.25 v 44.1 a 9,9 0 1 0 3,0.08 v -44.18 h 65.25 v 86.5 H 82.864701 a 9,9 0 1 0 0,3 H 243.50471 v 9.92 l -182.500009,-0.62 v -132.8 H 277.08471 l 30.42,59.5 h -6.71 l -28.38,-54.5 H 81.004701 v 10.06 a 9,9 0 1 0 7,15.61 l 7,8.65 19.189999,-22.32 h 150.83001 l 22.29,42.5 h -6.81 v 3 h 49.44 v -3 z m -247.600009,16.5 a 6,6 0 1 1 6,-6 6,6 0 0 1 -6,6 z m 67.000009,11 a 6,6 0 1 1 -6,-6 6,6 0 0 1 6,6 z m 41.5,0 a 6,6 0 1 1 -6,-6 6,6 0 0 1 6,6 z m -108.500009,41 a 6,6 0 1 1 6,-6 6,6 0 0 1 -6,6 z m 8,-98 a 6,6 0 1 1 6,-6 6,6 0 0 1 -6,6 z m 184.840009,-16 H 112.8447 l -17.769999,20.65 -5.12,-6.39 a 9,9 0 0 0 -5.93,-13 v -7.26 H 270.57471 l 26.82,51.5 h -6.69 z"
     id="path4" />
  <rect
     x="284.57471"
     y="105.43012"
     width="45.369999"
     height="3"
     id="rect6" />
  <rect
     x="293.5047"
     y="113.43012"
     width="33.5"
     height="3"
     id="rect8" />
  <rect
     x="298.0047"
     y="122.14012"
     width="29"
     height="3"
     id="rect10" />
  <rect
     x="154.3109"
     y="245.44089"
     width="3"
     height="36.07"
     transform="rotate(-37.39)"
     id="rect12" />
  <rect
     x="147.29774"
     y="246.37244"
     width="3"
     height="36.07"
     transform="rotate(-37.39)"
     id="rect14" />
  <rect
     x="292.0047"
     y="136.93011"
     width="3"
     height="46.639999"
     id="rect16" />
  <rect
     x="300.29471"
     y="130.43011"
     width="3"
     height="53.139999"
     id="rect18" />
  <rect
     x="308.29471"
     y="130.43011"
     width="3"
     height="53.139999"
     id="rect20" />
  <rect
     x="317.29471"
     y="130.43011"
     width="3"
     height="53.139999"
     id="rect22" />
  <path
     d="m 102.2047,142.23012 a 30.82,30.82 0 0 1 -13.519999,-3.36 l -2.48,10 c 3,1.68 9.12,3.36 15.279999,3.36 14.8,0 21.68001,-7.68 21.68001,-16.72 0,-7.6 -4.4,-12.56 -13.92001,-16.08 -7,-2.64 -9.999999,-4.16 -9.999999,-7.6 0,-2.72 2.559999,-5.2 7.839999,-5.2 a 25.22,25.22 0 0 1 11.2,2.56 l 2.72001,-9.76 a 31.54,31.54 0 0 0 -13.76001,-2.72 c -12.639999,0 -20.399999,7 -20.399999,16.16 0,7.84 5.92,12.8 14.879999,16 6.48,2.24 9,4.16 9,7.52 0.04,3.54 -2.92,5.84 -8.52,5.84 z"
     id="path24" />
  <polygon
     points="123.02,73 86.3,73 86.3,83 110.14,83 110.14,83.16 88.69,125 101.58,125 123.02,80.68 "
     id="polygon26"
     transform="translate(47.504701,26.43012)" />
  <polygon
     points="173.02,73 136.29,73 136.29,83 160.14,83 160.14,83.16 138.69,125 151.57,125 173.02,80.68 "
     id="polygon28"
     transform="translate(47.504701,26.43012)" />
  <metadata
     id="metadata262">
    <rdf:RDF>
      <cc:Work
         rdf:about="">
        <dc:title>section77_logo_vector</dc:title>
      </cc:Work>
    </rdf:RDF>
  </metadata>
</svg>
