<?xml version="1.0" encoding="UTF-8" standalone="no"?>
<!DOCTYPE svg PUBLIC "-//W3C//DTD SVG 1.1//EN" "http://www.w3.org/Graphics/SVG/1.1/DTD/svg11.dtd">
<svg width="100%" height="100%" viewBox="0 0 216 216" version="1.1" xmlns="http://www.w3.org/2000/svg" xmlns:xlink="http://www.w3.org/1999/xlink" xml:space="preserve" xmlns:serif="http://www.serif.com/" style="fill-rule:evenodd;clip-rule:evenodd;">
    <g transform="matrix(0,-1,-1,-0,215.427,215.432)">
        <ellipse cx="107.713" cy="107.714" rx="95.543" ry="95.541" style="fill:white;"/>
    </g>
    <g transform="matrix(1,0,0,-1,0,220.332)">
        <path d="M107.57,209.656C58.391,209.644 16.238,172.375 11.176,122.391C5.773,69.074 44.617,21.477 97.934,16.074C151.254,10.676 198.855,49.519 204.258,102.836C209.656,156.152 170.809,203.75 117.492,209.152C114.16,209.488 110.848,209.656 107.57,209.656ZM107.715,179.461C144.633,179.461 174.559,149.531 174.559,112.613C174.559,84.098 156.699,59.758 131.559,50.152L131.559,32.535L128.57,29.547L127.664,28.633L116.793,28.633L115.883,29.547L113.813,31.621L112.898,32.535L109.91,29.547L109.004,28.633L98.129,28.633L97.223,29.547L94.234,32.535L94.234,47.121C63.773,53.355 40.867,80.309 40.867,112.613C40.867,149.531 70.797,179.461 107.715,179.461ZM125.34,48.121C123.301,47.562 121.227,47.102 119.117,46.738L119.117,35.109L119.371,34.855L125.086,34.855L125.34,35.109L125.34,48.121ZM100.457,46.156L100.457,43.578C101.477,44.039 102.566,44.187 103.566,44.187C104.566,44.187 105.656,44.039 106.676,43.578L106.676,45.773C104.578,45.805 102.504,45.934 100.457,46.156Z" style="fill:rgb(0,58,62);fill-rule:nonzero;stroke:rgb(255,196,0);stroke-width:2.07px;"/>
    </g>
    <g transform="matrix(1,0,0,1,0,-106.715)">
        <path d="M48.574,172.731L50.652,170.309C50.855,170.059 50.84,169.793 50.605,169.59L45.262,164.996C45.027,164.793 45.012,164.512 45.215,164.277L48.809,160.09C49.012,159.856 49.277,159.824 49.512,160.027L54.855,164.621C55.09,164.824 55.371,164.809 55.59,164.559L57.668,162.152C57.871,161.902 57.84,161.637 57.605,161.434L43.574,149.371C43.324,149.152 43.059,149.184 42.855,149.434L40.777,151.84C40.559,152.09 40.574,152.34 40.824,152.559L45.824,156.856C46.059,157.059 46.074,157.34 45.871,157.574L42.277,161.762C42.074,161.996 41.809,162.027 41.574,161.824L36.574,157.527C36.324,157.309 36.043,157.34 35.84,157.59L33.762,160.012C33.559,160.246 33.559,160.512 33.809,160.731L47.84,172.793C48.074,172.996 48.371,172.965 48.574,172.731Z" style="fill:white;fill-rule:nonzero;"/>
    </g>
    <g transform="matrix(1,0,0,1,0,-131.988)">
        <path d="M61.762,175.476C61.527,175.632 61.387,175.57 61.309,175.398L59.105,169.039L58.809,168.461L59.246,168.164L59.668,168.648L64.762,173.039C64.902,173.179 64.902,173.336 64.668,173.492L61.762,175.476ZM67.793,176.007C67.965,175.898 68.043,175.882 68.184,175.976L70.262,177.789C70.371,177.882 70.512,177.882 70.652,177.789L73.746,175.679C73.934,175.554 73.965,175.445 73.887,175.32C73.855,175.289 73.84,175.257 73.777,175.195L58.605,162.742C58.449,162.601 58.23,162.632 58.027,162.757L54.262,165.336C54.074,165.461 53.98,165.648 54.027,165.851C54.027,165.851 59.98,184.382 59.98,184.429C60.012,184.507 60.059,184.632 60.105,184.695C60.184,184.82 60.324,184.82 60.512,184.695L63.59,182.601C63.715,182.507 63.762,182.382 63.73,182.226L62.809,179.632C62.746,179.476 62.793,179.414 62.98,179.289L67.793,176.007Z" style="fill:white;fill-rule:nonzero;"/>
    </g>
    <g transform="matrix(1,0,0,1,0,-153.433)">
        <path d="M82.535,193.988L84.566,193.253C87.426,192.206 89.051,190.16 88.848,187.628C88.832,187.3 88.77,187.113 88.738,187.019C88.691,186.894 88.566,186.816 88.395,186.8L85.473,186.816C85.379,186.816 85.301,186.831 85.238,186.863C85.066,186.925 84.91,187.097 84.926,187.347C84.941,188.488 84.441,189.206 83.238,189.644L81.207,190.378C80.082,190.785 79.051,190.238 78.645,189.128L75.848,181.425C75.457,180.378 75.879,179.222 77.004,178.816L79.035,178.081C80.238,177.644 81.129,177.878 81.801,178.769C81.926,178.941 82.176,179.003 82.348,178.941C82.41,178.91 82.488,178.863 82.551,178.816L84.785,176.925C84.926,176.816 84.957,176.691 84.91,176.55C84.879,176.456 84.863,176.425 84.66,176.16C83.191,174.081 80.566,173.425 77.707,174.472L75.676,175.206C71.816,176.613 70.613,179.378 71.738,182.456L74.848,191.003C76.02,194.206 78.535,195.441 82.535,193.988Z" style="fill:white;fill-rule:nonzero;"/>
    </g>
    <g transform="matrix(1,0,0,1,0,-162.87)">
        <path d="M94.402,199.518L97.59,199.206C97.902,199.175 98.09,198.956 98.059,198.643L97.496,192.925L98.621,191.222C98.668,191.143 98.762,191.05 98.84,191.05C98.965,191.034 99.059,191.128 99.121,191.206L104.574,198.222C104.715,198.409 104.934,198.503 105.137,198.472L108.871,198.112C109.184,198.081 109.371,197.862 109.34,197.534C109.324,197.409 109.277,197.331 109.215,197.253L101.23,187.69C101.168,187.597 101.137,187.581 101.121,187.534C101.121,187.487 101.137,187.44 101.199,187.347L106.371,179.628C106.418,179.534 106.449,179.378 106.449,179.253C106.418,178.925 106.199,178.753 105.871,178.784L102.418,179.112C102.262,179.128 102.137,179.206 102.043,179.347L96.73,187.628C96.84,187.097 96.855,186.284 96.777,185.518L96.277,180.237C96.246,179.909 96.012,179.737 95.699,179.768L92.512,180.081C92.199,180.112 92.027,180.315 92.059,180.643L93.84,199.05C93.871,199.362 94.09,199.55 94.402,199.518Z" style="fill:white;fill-rule:nonzero;"/>
    </g>
    <g transform="matrix(1,0,0,1,0,-160.62)">
        <path d="M123.051,192.729L123.598,189.776L126.395,190.292C126.707,190.354 126.941,190.182 127.004,189.87L127.395,187.682C127.457,187.386 127.285,187.151 126.973,187.089L124.176,186.573L124.676,183.886C124.723,183.573 124.566,183.354 124.27,183.292L122.082,182.901C121.77,182.839 121.52,182.995 121.473,183.307L120.973,185.995L118.145,185.464C117.816,185.417 117.598,185.573 117.535,185.87L117.145,188.057C117.082,188.37 117.238,188.62 117.566,188.667L120.395,189.198L119.848,192.151C119.785,192.464 119.957,192.698 120.27,192.761L122.457,193.151C122.754,193.214 122.988,193.042 123.051,192.729Z" style="fill:white;fill-rule:nonzero;"/>
    </g>
    <g transform="matrix(1,0,0,1,0,-144.621)">
        <path d="M133.668,184.683L136.496,186.183C136.762,186.324 137.043,186.246 137.184,185.965L139.605,181.387C140.934,178.871 142.043,175.855 142.121,175.699L142.184,175.746C142.184,175.824 141.699,178.168 141.59,179.324L140.996,185.418C140.949,185.621 141.074,185.777 141.309,185.902L143.418,187.027C143.605,187.121 143.824,187.121 143.98,186.996L148.699,183.168C149.59,182.418 151.199,180.73 151.23,180.668L151.34,180.73C151.262,180.887 149.449,183.48 148.152,185.933L145.746,190.48C145.605,190.762 145.684,191.027 145.965,191.168L148.715,192.637C148.996,192.777 149.277,192.699 149.418,192.418L158.059,176.058C158.215,175.762 158.121,175.512 157.84,175.371L154.84,173.777C154.637,173.668 154.418,173.683 154.293,173.793L146.105,180.465C145.684,180.824 145.23,181.293 145.215,181.324L145.09,181.262C145.105,181.23 145.246,180.652 145.324,180.058L146.121,169.48C146.121,169.308 146.027,169.137 145.824,169.027L142.793,167.418C142.527,167.277 142.246,167.34 142.09,167.637L133.449,183.996C133.309,184.277 133.402,184.543 133.668,184.683Z" style="fill:white;fill-rule:nonzero;"/>
    </g>
    <g transform="matrix(1,0,0,1,0,-113.574)">
        <path d="M161.184,163.324C160.98,163.121 161.012,162.98 161.168,162.886L166.98,159.418L167.465,159.027L167.855,159.402L167.465,159.902L164.168,165.793C164.074,165.949 163.918,165.98 163.715,165.777L161.184,163.324ZM161.871,169.355C162.027,169.511 162.074,169.574 161.996,169.715L160.637,172.121C160.559,172.261 160.59,172.386 160.715,172.511L163.402,175.105C163.574,175.277 163.684,175.277 163.793,175.183C163.824,175.152 163.84,175.121 163.871,175.043L173.012,157.668C173.105,157.48 173.059,157.277 172.887,157.121L169.605,153.933C169.449,153.777 169.23,153.73 169.043,153.824C169.043,153.824 152.105,163.371 152.059,163.386C151.98,163.449 151.871,163.511 151.824,163.574C151.715,163.668 151.746,163.808 151.918,163.965L154.59,166.558C154.699,166.668 154.824,166.683 154.965,166.621L157.324,165.183C157.465,165.121 157.527,165.136 157.699,165.308L161.871,169.355Z" style="fill:white;fill-rule:nonzero;"/>
    </g>
    <g transform="matrix(1,0,0,1,0,-83.6289)">
        <path d="M165.699,148.398L167.371,151.133C167.527,151.398 167.809,151.461 168.074,151.305L172.996,148.32L174.996,148.57C175.09,148.602 175.215,148.633 175.246,148.695C175.324,148.805 175.277,148.961 175.23,149.039L171.293,156.992C171.184,157.195 171.199,157.43 171.293,157.617L173.246,160.82C173.402,161.086 173.684,161.148 173.965,160.977C174.074,160.914 174.121,160.852 174.168,160.742L179.324,149.414C179.371,149.32 179.387,149.273 179.418,149.242C179.465,149.227 179.48,149.227 179.605,149.227L188.824,150.523C188.934,150.555 189.074,150.492 189.184,150.43C189.465,150.258 189.527,150.008 189.355,149.727L187.559,146.758C187.48,146.633 187.355,146.539 187.184,146.508L177.418,145.336C177.965,145.195 178.699,144.852 179.355,144.461L183.887,141.695C184.168,141.523 184.215,141.258 184.059,140.992L182.387,138.258C182.23,137.992 181.965,137.914 181.684,138.086L165.871,147.695C165.605,147.852 165.543,148.133 165.699,148.398Z" style="fill:white;fill-rule:nonzero;"/>
    </g>
    <g transform="matrix(1,0,0,1,0,-47.7379)">
        <path d="M178.113,140.078C178.207,140.375 178.457,140.515 178.77,140.422L181.457,139.593C181.77,139.5 181.879,139.25 181.785,138.953L179.566,131.734C179.473,131.422 179.613,131.172 179.91,131.078L182.738,130.203C183.035,130.109 183.301,130.234 183.395,130.547L185.223,136.468C185.316,136.781 185.551,136.906 185.848,136.812L188.535,135.984C188.848,135.89 188.988,135.656 188.895,135.343L187.066,129.422C186.973,129.109 187.098,128.859 187.395,128.765L190.082,127.937C190.395,127.843 190.645,127.968 190.738,128.281L192.957,135.5C193.051,135.797 193.301,135.953 193.598,135.859L196.301,135.015C196.613,134.922 196.723,134.672 196.629,134.375L193.16,123.109C193.066,122.812 192.832,122.656 192.52,122.75L174.988,128.156C174.676,128.25 174.551,128.515 174.645,128.812L178.113,140.078Z" style="fill:white;fill-rule:nonzero;"/>
    </g>
    <g transform="matrix(1,0,0,1,0,-10.9329)">
        <path d="M179.031,113.785C179.328,118.081 181.812,120.456 185.422,120.222C188.062,120.035 189.953,118.066 191.016,113.972C191.703,111.441 192.281,110.597 193.25,110.535C194.234,110.472 195.094,111.253 195.188,112.706C195.281,114.019 194.75,115.035 193.797,115.55C193.594,115.675 193.469,115.863 193.484,116.05C193.5,116.128 193.516,116.191 193.547,116.269L194.734,118.941C194.797,119.128 194.922,119.191 195.062,119.175C195.156,119.175 195.188,119.16 195.516,119.066C197.891,118.019 199.188,115.566 198.969,112.378C198.688,108.316 195.906,105.91 193.172,106.097C190.203,106.3 188.344,108.191 187.312,112.378C186.688,114.972 185.938,115.706 184.969,115.769C183.906,115.847 183.062,115.097 182.953,113.535C182.844,111.847 183.422,110.847 184.438,110.285C184.641,110.175 184.766,109.988 184.75,109.8C184.734,109.738 184.719,109.66 184.688,109.581L183.391,106.769C183.328,106.597 183.188,106.519 183.047,106.535C182.969,106.535 182.922,106.535 182.609,106.66C180.141,107.597 178.797,110.3 179.031,113.785Z" style="fill:white;fill-rule:nonzero;"/>
    </g>
    <g transform="matrix(1,0,0,1,0,27.5751)">
        <path d="M178.898,89.413C178.852,89.726 179.023,89.96 179.336,90.007L185.305,90.96C185.617,91.007 185.773,91.226 185.711,91.538L185.273,94.398C184.617,98.491 187.148,100.976 190.164,101.444L190.617,101.523C194.227,102.085 196.773,100.413 197.414,96.335L198.539,89.288C198.586,88.976 198.43,88.741 198.117,88.694L179.992,85.819C179.68,85.773 179.445,85.944 179.398,86.257L178.898,89.413ZM189.492,92.132C189.555,91.819 189.773,91.663 190.102,91.71L193.648,92.273C193.977,92.319 194.133,92.538 194.07,92.851L193.617,95.804C193.43,96.976 192.461,97.757 191.195,97.554L190.773,97.491C189.508,97.288 188.852,96.257 189.039,95.085L189.492,92.132Z" style="fill:white;fill-rule:nonzero;"/>
    </g>
    <g transform="matrix(1,0,0,1,0,56.6771)">
        <path d="M181.141,79.237C181.25,78.987 181.391,78.956 181.547,79.081L186.891,83.175L187.438,83.487L187.234,83.971L186.625,83.815L179.953,82.94C179.766,82.893 179.688,82.768 179.797,82.503L181.141,79.237ZM175.797,82.112C175.719,82.315 175.656,82.362 175.5,82.362L172.75,81.987C172.609,81.971 172.5,82.05 172.422,82.206L171,85.659C170.922,85.878 170.953,85.987 171.078,86.034C171.125,86.05 171.156,86.065 171.25,86.096L190.766,88.143C190.984,88.175 191.156,88.05 191.25,87.831L192.984,83.612C193.078,83.393 193.031,83.175 192.875,83.034C192.875,83.034 177.734,70.831 177.703,70.8C177.625,70.753 177.516,70.659 177.438,70.628C177.312,70.581 177.188,70.659 177.109,70.862L175.688,74.3C175.625,74.456 175.656,74.581 175.766,74.675L177.969,76.346C178.094,76.44 178.109,76.518 178.016,76.737L175.797,82.112Z" style="fill:white;fill-rule:nonzero;"/>
    </g>
    <g transform="matrix(1,0,0,1,0,97.3871)">
        <path d="M165.41,52.414L164.129,54.148C162.316,56.586 162.066,59.195 163.629,61.195C163.816,61.461 163.973,61.586 164.051,61.632C164.145,61.711 164.301,61.726 164.457,61.617L166.895,60.023C166.957,59.961 167.02,59.914 167.066,59.851C167.176,59.711 167.207,59.476 167.051,59.289C166.426,58.351 166.441,57.461 167.191,56.445L168.488,54.695C169.207,53.742 170.348,53.632 171.301,54.351L177.879,59.226C178.785,59.898 179.082,61.07 178.363,62.039L177.066,63.789C176.316,64.804 175.441,65.101 174.379,64.726C174.176,64.648 173.941,64.742 173.832,64.882C173.785,64.945 173.754,65.023 173.738,65.101L172.895,67.898C172.832,68.07 172.879,68.195 172.988,68.289C173.066,68.336 173.098,68.367 173.41,68.476C175.785,69.398 178.348,68.507 180.145,66.086L181.441,64.336C183.895,61.039 183.395,58.07 180.754,56.101L173.457,50.679C170.723,48.648 167.941,49.007 165.41,52.414Z" style="fill:white;fill-rule:nonzero;"/>
    </g>
    <g transform="matrix(1,0,0,1,0,126.098)">
        <path d="M148.469,40.91C148.219,41.113 148.188,41.394 148.391,41.644L150.172,43.816C150.375,44.066 150.656,44.082 150.906,43.879L156.75,39.082C157,38.879 157.266,38.925 157.469,39.175L159.344,41.472C159.547,41.707 159.531,41.972 159.281,42.175L154.484,46.113C154.234,46.332 154.219,46.597 154.406,46.847L156.188,49.019C156.406,49.269 156.672,49.3 156.922,49.082L161.719,45.144C161.969,44.941 162.25,44.988 162.438,45.238L164.219,47.41C164.438,47.66 164.406,47.91 164.156,48.113L158.312,52.91C158.062,53.113 158.047,53.41 158.234,53.644L160.031,55.832C160.234,56.066 160.5,56.097 160.75,55.894L169.859,48.425C170.109,48.222 170.156,47.941 169.953,47.707L158.312,33.519C158.109,33.269 157.828,33.238 157.578,33.441L148.469,40.91Z" style="fill:white;fill-rule:nonzero;"/>
    </g>
    <g transform="matrix(1,0,0,1,0,9.20006)">
        <path d="M30.961,102.14L35.289,99.671C35.445,99.562 35.508,99.405 35.492,99.171L35.289,95.28C35.273,95.124 35.148,94.999 35.039,95.015C34.945,95.015 34.867,95.03 34.82,95.062L26.414,100.405C26.336,100.468 26.258,100.499 26.164,100.499C26.086,100.499 25.992,100.499 25.883,100.437L16.242,95.749C16.164,95.718 16.07,95.687 15.992,95.687C15.836,95.702 15.758,95.812 15.773,96.046L15.977,99.952C15.992,100.28 16.148,100.421 16.352,100.515L19.102,101.749C20.695,102.452 22.133,102.874 22.992,102.827L23.008,102.921C22.523,103.124 21.445,103.718 21.055,103.921L16.664,106.343C16.477,106.452 16.336,106.593 16.352,106.921L16.57,110.874C16.586,111.093 16.664,111.234 16.82,111.218C16.898,111.218 16.945,111.218 17.039,111.14L25.539,105.749C25.633,105.687 25.695,105.624 25.805,105.609C25.914,105.609 25.992,105.655 26.07,105.687L35.617,110.312C35.664,110.327 35.758,110.343 35.836,110.343C35.945,110.327 36.086,110.218 36.086,110.062L35.867,105.984C35.852,105.78 35.773,105.593 35.602,105.515L32.883,104.28C30.836,103.484 29.977,103.14 28.789,103.28L28.789,103.187C29.258,102.984 30.555,102.327 30.961,102.14Z" style="fill:white;fill-rule:nonzero;"/>
    </g>
    <g transform="matrix(1,0,0,1,0,51.1841)">
        <path d="M18.418,78.562L19.434,81.593C19.527,81.89 19.777,82.031 20.074,81.937L26.777,79.734C27.074,79.625 27.309,79.75 27.402,80.062L29.121,85.281C29.215,85.578 29.105,85.828 28.809,85.937L22.105,88.14C21.809,88.234 21.684,88.468 21.793,88.781L22.793,91.812C22.887,92.109 23.137,92.234 23.434,92.14L41.012,86.359C41.324,86.25 41.434,86 41.34,85.703L40.34,82.671C40.23,82.359 39.996,82.25 39.684,82.359L33.418,84.421C33.121,84.515 32.887,84.375 32.793,84.078L31.074,78.859C30.98,78.546 31.09,78.312 31.387,78.218L37.652,76.156C37.965,76.046 38.074,75.781 37.98,75.484L36.965,72.453C36.871,72.156 36.637,72.015 36.324,72.125L18.746,77.906C18.449,78 18.324,78.265 18.418,78.562Z" style="fill:white;fill-rule:nonzero;"/>
    </g>
    <g transform="matrix(1,0,0,1,0,95.0821)">
        <path d="M36.027,57.902C35.871,57.668 35.934,57.543 36.121,57.465L42.512,55.324L43.09,55.059L43.371,55.496L42.887,55.902L38.434,60.949C38.293,61.09 38.137,61.074 37.98,60.84L36.027,57.902ZM35.418,63.934C35.543,64.105 35.559,64.199 35.449,64.324L33.621,66.387C33.512,66.496 33.512,66.637 33.605,66.777L35.668,69.887C35.809,70.09 35.918,70.121 36.043,70.043C36.074,70.027 36.105,70.012 36.168,69.918L48.793,54.902C48.934,54.746 48.934,54.527 48.793,54.324L46.277,50.527C46.152,50.324 45.949,50.23 45.746,50.293C45.746,50.293 27.152,56.012 27.105,56.027C27.027,56.059 26.902,56.121 26.84,56.152C26.715,56.23 26.699,56.355 26.84,56.559L28.887,59.652C28.98,59.793 29.105,59.824 29.246,59.793L31.855,58.902C32.027,58.855 32.074,58.887 32.199,59.09L35.418,63.934Z" style="fill:white;fill-rule:nonzero;"/>
    </g>
    <g transform="matrix(1,0,0,1,0,116.692)">
        <path d="M42.238,55.206L44.52,57.456C44.738,57.675 45.035,57.675 45.254,57.441L58.238,44.269C58.473,44.035 58.441,43.769 58.223,43.55L55.941,41.3C55.723,41.081 55.457,41.066 55.223,41.3L42.238,54.472C42.02,54.706 42.02,54.988 42.238,55.206Z" style="fill:white;fill-rule:nonzero;"/>
    </g>
    <g transform="matrix(1,0,0,1,0,138.684)">
        <path d="M53.16,43.039L55.879,44.742C56.145,44.914 56.426,44.851 56.598,44.585L59.879,39.367C60.926,37.695 61.863,35.804 62.113,34.945L62.223,35.007C62.191,35.07 62.082,35.726 62.051,36.476L61.848,48.226C61.848,48.445 61.926,48.554 62.098,48.664L64.566,50.226C64.848,50.398 65.113,50.335 65.285,50.07L75.145,34.414C75.316,34.148 75.27,33.882 74.988,33.71L72.301,32.007C72.02,31.835 71.754,31.898 71.582,32.164L68.285,37.398C67.363,38.867 66.27,41.039 65.785,42.429L65.691,42.382C65.754,42.164 65.863,41.257 65.863,40.539L66.348,28.492C66.348,28.351 66.254,28.195 66.082,28.101L63.582,26.523C63.316,26.351 63.035,26.398 62.863,26.664L53.004,42.32C52.832,42.585 52.895,42.867 53.16,43.039Z" style="fill:white;fill-rule:nonzero;"/>
    </g>
    <g transform="matrix(1,0,0,-1,0,178.114)">
        <path d="M53.801,70.395L53.801,95.278L66.242,107.719L95.273,107.719" style="fill:none;fill-rule:nonzero;stroke:rgb(0,158,0);stroke-width:6.64px;stroke-linecap:round;stroke-linejoin:round;"/>
    </g>
    <g transform="matrix(1,0,0,-1,0,207.144)">
        <path d="M62.094,120.16L62.094,95.277L70.391,86.984L91.125,86.984" style="fill:none;fill-rule:nonzero;stroke:rgb(80,147,0);stroke-width:6.64px;stroke-linecap:round;stroke-linejoin:round;"/>
    </g>
    <g transform="matrix(1,0,0,-1,0,147.008)">
        <path d="M111.859,80.762L99.418,68.32L70.391,68.32L68.316,66.246" style="fill:none;fill-rule:nonzero;stroke:rgb(0,117,0);stroke-width:6.64px;stroke-linecap:round;stroke-linejoin:round;"/>
    </g>
    <g transform="matrix(1,0,0,-1,0,219.586)">
        <path d="M95.273,116.016L95.273,132.602L76.609,132.602L70.391,126.383L70.391,111.867L74.535,107.719L95.273,107.719L103.566,99.426L103.566,86.984" style="fill:none;fill-rule:nonzero;stroke:rgb(38,116,0);stroke-width:6.64px;stroke-linecap:round;stroke-linejoin:round;"/>
    </g>
    <g transform="matrix(1,0,0,1,0,99.5321)">
        <path d="M116.008,86.984L118.082,89.054L126.375,89.054L128.449,86.984L128.449,60.027L126.375,57.952L124.301,57.952L124.301,28.921L122.227,26.847L120.156,28.921L120.156,57.952L118.082,57.952L116.008,60.027L116.008,86.984ZM98.383,26.847L93.199,26.847L91.125,28.921L91.125,43.437L93.199,45.511L97.344,47.585L97.344,86.984L99.418,89.054L107.715,89.054L109.785,86.984L109.785,47.585L113.934,45.511L116.008,43.437L116.008,28.921L113.934,26.847L108.75,26.847L108.75,38.253L103.566,40.327L98.383,38.253L98.383,26.847ZM103.566,79.726C105.855,79.726 106.676,80.546 106.676,82.835C106.676,85.124 105.855,85.945 103.566,85.945C101.277,85.945 100.457,85.124 100.457,82.835C100.457,80.546 101.277,79.726 103.566,79.726Z" style="fill:rgb(108,36,0);fill-rule:nonzero;"/>
    </g>
    <g transform="matrix(1,0,0,-1,0,149.082)">
        <path d="M119.973,82.836L149,82.836L153.148,78.687L153.148,70.394L149,66.246L124.301,66.246" style="fill:none;fill-rule:nonzero;stroke:rgb(0,145,0);stroke-width:6.64px;stroke-linecap:round;stroke-linejoin:round;"/>
    </g>
    <g transform="matrix(1,0,0,-1,0,240.32)">
        <path d="M132.598,111.867L132.598,116.011L140.891,124.308L140.891,128.453" style="fill:none;fill-rule:nonzero;stroke:rgb(0,97,0);stroke-width:6.64px;stroke-linecap:round;stroke-linejoin:round;"/>
    </g>
    <g transform="matrix(1,0,0,-1,0,202.996)">
        <path d="M138.816,99.426L138.816,111.867L149.184,111.867L149.184,91.129" style="fill:none;fill-rule:nonzero;stroke:rgb(0,131,23);stroke-width:6.64px;stroke-linecap:round;stroke-linejoin:round;"/>
    </g>
    <g transform="matrix(1,0,0,-1,0,124.204)">
        <path d="M72.461,62.102L95.273,62.102" style="fill:none;fill-rule:nonzero;stroke:rgb(134,169,0);stroke-width:6.64px;stroke-linecap:round;stroke-linejoin:round;"/>
    </g>
    <g transform="matrix(0,-1,-1,-0,190.546,149.078)">
        <circle cx="62.096" cy="128.451" r="3.112" style="fill:rgb(255,204,0);"/>
    </g>
    <g transform="matrix(0,-1,-1,-0,186.398,236.168)">
        <circle cx="103.566" cy="82.832" r="3.11" style="fill:rgb(255,204,0);"/>
    </g>
    <g transform="matrix(0,-1,-1,-0,186.398,211.285)">
        <circle cx="91.125" cy="95.273" r="3.109" style="fill:rgb(255,204,0);"/>
    </g>
    <g transform="matrix(0,-1,-1,-0,219.574,261.051)">
        <ellipse cx="132.596" cy="86.978" rx="3.111" ry="3.111" style="fill:rgb(255,204,0);"/>
    </g>
    <g transform="matrix(0,-1,-1,-0,261.047,178.11)">
        <ellipse cx="111.861" cy="149.185" rx="3.111" ry="3.112" style="fill:rgb(255,204,0);"/>
    </g>
    <g transform="matrix(0,-1,-1,-0,269.34,186.403)">
        <ellipse cx="120.155" cy="149.185" rx="3.111" ry="3.112" style="fill:rgb(255,204,0);"/>
    </g>
    <g transform="matrix(0,-1,-1,-0,161.515,161.519)">
        <circle cx="53.801" cy="107.714" r="3.11" style="fill:rgb(255,204,0);"/>
    </g>
    <g transform="matrix(0,-1,-1,-0,190.544,149.077)">
        <ellipse cx="62.094" cy="128.45" rx="2.073" ry="2.074" style="fill:white;"/>
    </g>
    <g transform="matrix(0,-1,-1,-0,219.576,261.049)">
        <ellipse cx="132.596" cy="86.98" rx="2.074" ry="2.073" style="fill:white;"/>
    </g>
    <g transform="matrix(0,-1,-1,-0,252.753,261.051)">
        <circle cx="149.186" cy="103.568" r="3.111" style="fill:rgb(255,204,0);"/>
    </g>
    <g transform="matrix(0,-1,-1,-0,252.751,261.049)">
        <ellipse cx="149.183" cy="103.568" rx="2.072" ry="2.075" style="fill:white;"/>
    </g>
    <g transform="matrix(0,-1,-1,-0,186.398,236.168)">
        <circle cx="103.567" cy="82.832" r="2.075" style="fill:white;"/>
    </g>
    <g transform="matrix(0,-1,-1,-0,186.398,211.285)">
        <circle cx="91.125" cy="95.273" r="2.074" style="fill:white;"/>
    </g>
    <g transform="matrix(0,-1,-1,-0,161.516,161.52)">
        <ellipse cx="53.801" cy="107.715" rx="2.075" ry="2.074" style="fill:white;"/>
    </g>
    <g transform="matrix(0,-1,-1,-0,240.31,165.666)">
        <ellipse cx="95.272" cy="145.039" rx="3.109" ry="3.111" style="fill:rgb(255,204,0);"/>
    </g>
    <g transform="matrix(0,-1,-1,-0,240.31,165.666)">
        <ellipse cx="95.271" cy="145.039" rx="2.074" ry="2.072" style="fill:white;"/>
    </g>
    <g transform="matrix(0,-1,-1,-0,261.046,178.106)">
        <ellipse cx="111.86" cy="149.187" rx="2.074" ry="2.075" style="fill:white;"/>
    </g>
    <g transform="matrix(0,-1,-1,-0,269.341,186.401)">
        <ellipse cx="120.155" cy="149.187" rx="2.074" ry="2.073" style="fill:white;"/>
    </g>
    <g transform="matrix(1,0,0,-1,0,120.055)">
        <path d="M103.566,57.953L107.715,62.102L132.598,62.102" style="fill:none;fill-rule:nonzero;stroke:rgb(0,115,0);stroke-width:6.64px;stroke-linecap:round;stroke-linejoin:round;"/>
    </g>
    <g transform="matrix(0,-1,-1,-0,290.076,190.549)">
        <ellipse cx="132.596" cy="157.48" rx="3.109" ry="3.111" style="fill:rgb(255,204,0);"/>
    </g>
    <g transform="matrix(0,-1,-1,-0,290.076,190.549)">
        <ellipse cx="132.596" cy="157.48" rx="2.074" ry="2.073" style="fill:white;"/>
    </g>
    <g transform="matrix(0,-1,-1,-0,225.797,134.563)">
        <ellipse cx="72.463" cy="153.334" rx="3.111" ry="3.111" style="fill:rgb(255,204,0);"/>
    </g>
    <g transform="matrix(0,-1,-1,-0,225.797,134.563)">
        <ellipse cx="72.463" cy="153.334" rx="2.073" ry="2.072" style="fill:white;"/>
    </g>
    <g transform="matrix(1,0,0,-1,0,207.144)">
        <path d="M149.184,86.984L153.332,86.984L157.48,91.132L157.48,120.16" style="fill:none;fill-rule:nonzero;stroke:rgb(0,115,0);stroke-width:6.64px;stroke-linecap:round;stroke-linejoin:round;"/>
    </g>
    <g transform="matrix(0,-1,-1,-0,244.458,269.346)">
        <ellipse cx="149.186" cy="95.273" rx="3.109" ry="3.112" style="fill:rgb(255,204,0);"/>
    </g>
    <g transform="matrix(0,-1,-1,-0,244.456,269.344)">
        <ellipse cx="149.183" cy="95.273" rx="2.074" ry="2.075" style="fill:white;"/>
    </g>
    <g transform="matrix(0.602907,-1,-1,-0.602907,117.606,70.9055)">
        <path d="M-42.995,54.551C-43.254,54.293 -46.179,55.6 -46.542,55.542C-46.907,55.486 -49.284,53.338 -49.61,53.504C-49.939,53.673 -49.601,56.858 -49.766,57.184C-49.933,57.513 -52.71,59.112 -52.652,59.475C-52.596,59.837 -49.459,60.497 -49.2,60.76C-48.938,61.019 -48.281,64.153 -47.916,64.209C-47.553,64.268 -45.957,61.492 -45.626,61.324C-45.299,61.158 -42.113,61.497 -41.946,61.168C-41.78,60.842 -43.926,58.466 -43.985,58.103C-44.041,57.737 -42.735,54.813 -42.995,54.551Z" style="fill:white;fill-rule:nonzero;stroke:white;stroke-width:0.07px;"/>
    </g>
    <g transform="matrix(0.707107,0.707107,-0.707107,0.707107,94.5635,-29.4495)">
        <path d="M76.966,99.423L88.695,99.423" style="fill:none;fill-rule:nonzero;stroke:rgb(37,78,0);stroke-width:6.64px;stroke-linecap:round;stroke-linejoin:round;"/>
    </g>
    <g transform="matrix(1,0,0,-1,0,198.847)">
        <path d="M86.977,103.57L82.832,99.421L78.684,95.277" style="fill:none;fill-rule:nonzero;stroke:rgb(37,78,0);stroke-width:6.64px;stroke-linecap:round;stroke-linejoin:round;"/>
    </g>
    <g transform="matrix(0,1,-1,0,202.993,-8.2895)">
        <path d="M93.2,97.352L118.083,97.352" style="fill:none;fill-rule:nonzero;stroke:rgb(38,116,0);stroke-width:6.64px;stroke-linecap:round;stroke-linejoin:round;"/>
    </g>
    <g transform="matrix(0,-1,1,0,13.473,222.688)">
        <path d="M119.118,108.754L129.485,108.754L133.633,104.609L129.485,100.461L102.528,100.461" style="fill:none;fill-rule:nonzero;stroke:rgb(56,118,0);stroke-width:6.64px;stroke-linecap:round;stroke-linejoin:round;"/>
    </g>
    <g transform="matrix(0,1,-1,0,227.873,-33.1735)">
        <path d="M124.302,97.35L136.743,97.35" style="fill:none;fill-rule:nonzero;stroke:rgb(65,107,0);stroke-width:6.64px;stroke-linecap:round;stroke-linejoin:round;"/>
    </g>
    <g transform="matrix(0,-1,-1,-0,244.458,252.756)">
        <ellipse cx="140.891" cy="103.568" rx="3.112" ry="3.109" style="fill:rgb(255,204,0);"/>
    </g>
    <g transform="matrix(0,-1,-1,-0,244.459,252.756)">
        <ellipse cx="140.89" cy="103.568" rx="2.072" ry="2.075" style="fill:white;"/>
    </g>
    <g transform="matrix(0,-1,-1,-0,223.722,182.254)">
        <circle cx="95.272" cy="128.451" r="3.112" style="fill:rgb(255,204,0);"/>
    </g>
    <g transform="matrix(0,-1,-1,-0,223.722,182.254)">
        <circle cx="95.272" cy="128.45" r="2.073" style="fill:white;"/>
    </g>
    <g transform="matrix(0,-1,-1,-0,207.132,198.844)">
        <circle cx="95.272" cy="111.861" r="3.111" style="fill:rgb(255,204,0);"/>
    </g>
    <g transform="matrix(0,-1,-1,-0,207.135,198.842)">
        <ellipse cx="95.272" cy="111.863" rx="2.074" ry="2.073" style="fill:white;"/>
    </g>
    <g transform="matrix(0,-1,-1,-0,207.134,182.256)">
        <ellipse cx="86.979" cy="120.156" rx="3.109" ry="3.111" style="fill:rgb(255,204,0);"/>
    </g>
    <g transform="matrix(0,-1,-1,-0,207.132,182.254)">
        <circle cx="86.977" cy="120.156" r="2.075" style="fill:white;"/>
    </g>
    <g transform="matrix(0,-1,-1,-0,190.544,182.256)">
        <ellipse cx="78.684" cy="111.861" rx="3.111" ry="3.11" style="fill:rgb(255,204,0);"/>
    </g>
    <g transform="matrix(0,-1,-1,-0,190.546,182.254)">
        <ellipse cx="78.684" cy="111.863" rx="2.074" ry="2.075" style="fill:white;"/>
    </g>
    <g transform="matrix(0,-1,-1,-0,198.839,190.551)">
        <circle cx="86.979" cy="111.861" r="3.111" style="fill:rgb(255,204,0);"/>
    </g>
    <g transform="matrix(0,-1,-1,-0,198.839,190.547)">
        <ellipse cx="86.977" cy="111.863" rx="2.074" ry="2.075" style="fill:white;"/>
    </g>
    <g transform="matrix(0,-1,-1,-0,198.839,173.961)">
        <circle cx="78.684" cy="120.155" r="3.109" style="fill:rgb(255,204,0);"/>
    </g>
    <g transform="matrix(0,-1,-1,-0,198.839,173.961)">
        <circle cx="78.684" cy="120.156" r="2.075" style="fill:white;"/>
    </g>
    <g transform="matrix(1,0,0,-1,0,234.101)">
        <path d="M124.301,111.867L122.227,113.941L122.227,122.234L132.598,122.234" style="fill:none;fill-rule:nonzero;stroke:rgb(0,97,0);stroke-width:6.64px;stroke-linecap:round;stroke-linejoin:round;"/>
    </g>
    <g transform="matrix(0,-1,-1,-0,236.163,244.461)">
        <circle cx="132.596" cy="103.568" r="3.111" style="fill:rgb(255,204,0);"/>
    </g>
    <g transform="matrix(0,-1,-1,-0,236.164,244.461)">
        <ellipse cx="132.596" cy="103.568" rx="2.072" ry="2.073" style="fill:white;"/>
    </g>
    <g transform="matrix(0,-1,-1,-0,217.501,246.537)">
        <ellipse cx="124.303" cy="93.199" rx="3.109" ry="3.112" style="fill:rgb(255,204,0);"/>
    </g>
    <g transform="matrix(0,-1,-1,-0,217.499,246.536)">
        <ellipse cx="124.301" cy="93.199" rx="2.075" ry="2.074" style="fill:white;"/>
    </g>
    <g transform="matrix(1,0,0,-1,0,153.231)">
        <path d="M111.859,74.543L116.008,78.688L145.039,78.688" style="fill:none;fill-rule:nonzero;stroke:rgb(88,154,0);stroke-width:6.64px;stroke-linecap:round;stroke-linejoin:round;"/>
    </g>
    <g transform="matrix(0,-1,-1,-0,285.929,219.578)">
        <circle cx="145.037" cy="140.892" r="3.111" style="fill:rgb(255,204,0);"/>
    </g>
    <g transform="matrix(0,-1,-1,-0,285.929,219.578)">
        <circle cx="145.037" cy="140.892" r="2.072" style="fill:white;"/>
    </g>
    <g transform="matrix(0,-1,-1,-0,248.605,190.551)">
        <circle cx="111.862" cy="136.744" r="3.112" style="fill:rgb(255,204,0);"/>
    </g>
    <g transform="matrix(0,-1,-1,-0,248.605,190.547)">
        <circle cx="111.86" cy="136.746" r="2.075" style="fill:white;"/>
    </g>
    <g transform="matrix(0,-1,-1,-0,202.988,149.078)">
        <circle cx="68.317" cy="134.672" r="3.109" style="fill:rgb(255,204,0);"/>
    </g>
    <g transform="matrix(0,-1,-1,-0,202.988,149.078)">
        <circle cx="68.317" cy="134.671" r="2.074" style="fill:white;"/>
    </g>
    <g transform="matrix(0,-1,-1,-0,250.677,242.389)">
        <ellipse cx="138.817" cy="111.861" rx="3.111" ry="3.11" style="fill:rgb(255,204,0);"/>
    </g>
    <g transform="matrix(0,-1,-1,-0,250.68,242.387)">
        <ellipse cx="138.817" cy="111.863" rx="2.074" ry="2.075" style="fill:white;"/>
    </g>
    <g transform="matrix(0,-1,-1,-0,242.384,234.096)">
        <ellipse cx="130.524" cy="111.861" rx="3.111" ry="3.109" style="fill:rgb(255,204,0);"/>
    </g>
    <g transform="matrix(0,-1,-1,-0,242.387,234.094)">
        <ellipse cx="130.524" cy="111.863" rx="2.074" ry="2.075" style="fill:white;"/>
    </g>
    <g transform="matrix(0,-1,-1,-0,209.207,234.094)">
        <ellipse cx="113.934" cy="95.273" rx="3.109" ry="3.11" style="fill:rgb(255,204,0);"/>
    </g>
    <g transform="matrix(0,-1,-1,-0,209.207,234.094)">
        <ellipse cx="113.934" cy="95.273" rx="2.074" ry="2.075" style="fill:white;"/>
    </g>
    <g transform="matrix(0,-1,-1,-0,234.089,225.801)">
        <circle cx="122.229" cy="111.861" r="3.111" style="fill:rgb(255,204,0);"/>
    </g>
    <g transform="matrix(0,-1,-1,-0,234.091,225.799)">
        <ellipse cx="122.229" cy="111.863" rx="2.074" ry="2.073" style="fill:white;"/>
    </g>
    <g transform="matrix(0,-1,-1,-0,211.281,215.434)">
        <ellipse cx="105.641" cy="105.64" rx="3.109" ry="3.109" style="fill:rgb(255,204,0);"/>
    </g>
    <g transform="matrix(0,-1,-1,-0,211.281,215.434)">
        <ellipse cx="105.641" cy="105.64" rx="2.074" ry="2.075" style="fill:white;"/>
    </g>
    <g transform="matrix(0,-1,-1,-0,285.929,244.461)">
        <circle cx="157.479" cy="128.45" r="3.112" style="fill:rgb(255,204,0);"/>
    </g>
    <g transform="matrix(0,-1,-1,-0,285.929,244.461)">
        <circle cx="157.479" cy="128.45" r="2.073" style="fill:white;"/>
    </g>
    <g transform="matrix(0,-1,-1,-0,256.899,207.139)">
        <ellipse cx="124.303" cy="132.597" rx="3.109" ry="3.112" style="fill:rgb(255,204,0);"/>
    </g>
    <g transform="matrix(0,-1,-1,-0,256.898,207.137)">
        <circle cx="124.301" cy="132.597" r="2.074" style="fill:white;"/>
    </g>
    <g transform="matrix(0,-1,-1,-0,254.826,221.654)">
        <ellipse cx="130.524" cy="124.303" rx="3.112" ry="3.109" style="fill:rgb(255,204,0);"/>
    </g>
    <g transform="matrix(0,-1,-1,-0,254.828,221.653)">
        <ellipse cx="130.524" cy="124.304" rx="2.074" ry="2.075" style="fill:white;"/>
    </g>
    <g transform="matrix(1,0,0,-1,0,190.554)">
        <path d="M95.273,95.277L105.641,95.277" style="fill:none;fill-rule:nonzero;stroke:rgb(38,116,0);stroke-width:6.64px;stroke-linecap:round;stroke-linejoin:round;"/>
    </g>
    <g transform="matrix(0,-1,-1,-0,236.164,190.551)">
        <ellipse cx="105.64" cy="130.523" rx="3.109" ry="3.109" style="fill:rgb(255,204,0);"/>
    </g>
    <g transform="matrix(0,-1,-1,-0,236.163,190.551)">
        <ellipse cx="105.641" cy="130.523" rx="2.074" ry="2.075" style="fill:white;"/>
    </g>
    <g transform="matrix(0,-1,-1,-0,256.9,165.666)">
        <ellipse cx="103.566" cy="153.333" rx="3.111" ry="3.109" style="fill:rgb(255,204,0);"/>
    </g>
    <g transform="matrix(0,-1,-1,-0,256.9,165.666)">
        <ellipse cx="103.566" cy="153.334" rx="2.073" ry="2.075" style="fill:white;"/>
    </g>
    <g transform="matrix(0,-1,-1,-0,248.605,157.371)">
        <circle cx="95.271" cy="153.334" r="3.111" style="fill:rgb(255,204,0);"/>
    </g>
    <g transform="matrix(0,-1,-1,-0,248.605,157.371)">
        <circle cx="95.271" cy="153.334" r="2.073" style="fill:white;"/>
    </g>
</svg>
