<svg xmlns="http://www.w3.org/2000/svg" xml:space="preserve" fill-rule="evenodd" stroke-linejoin="round" stroke-miterlimit="2" clip-rule="evenodd" viewBox="0 0 1200 300">
  <path fill="#e61900" fill-rule="nonzero" d="M330.7 224.5v-149h93.1v26h-62.7v34.9h52.4v26.2h-52.4v35.9h62.7v26h-93.1Z"/>
  <path fill="#e61900" fill-rule="nonzero" d="m520.1 224.5-22.2-57.4h-22v57.4h-30.4v-149h56.1c17.7 0 29.6 3.2 37.3 9.8 7.9 6.9 11.9 17.7 11.9 33.6 0 10.8-2.1 20.1-6.6 27.8-4 6.9-9.5 12.2-16.4 15.9l26.7 61.9h-34.4Zm-22.7-82.3c8.7 0 14.8-1.9 18.3-5.6 2.9-3.2 4.2-7.9 4.2-15.3 0-14.3-2.9-20.4-20.1-20.4h-23.5v41.3h21.1Z"/>
  <path fill="#e61900" fill-rule="nonzero" d="M594.3027 75.81v33.2053h4.8164V95.828h7.6074l6.437 13.1873h5.1316l-6.7971-14.0411c3.286-1.0436 5.4467-4.0321 5.4467-9.1552 0-6.404-3.4661-10.009-8.7327-10.009h-13.9093Zm4.8164 4.032h8.3276c2.8359 0 4.6815 1.8975 4.6815 5.977 0 4.1744-1.8906 5.977-4.6815 5.977h-8.3276V79.842Z"/>
  <path fill="#e61900" fill-rule="nonzero" d="M643.9535 79.842V75.81h-20.1662v33.2053h20.3913v-4.032h-15.5748V93.551h14.3594v-4.032h-14.3594v-9.677h15.3497Z"/>
  <path fill="#e61900" fill-rule="nonzero" d="M663.9846 109.0153 674.968 75.81h-5.1316l-8.6877 27.7503-8.6426-27.7503h-5.1766l11.0284 33.2054h5.6267Z"/>
  <path fill="#e61900" fill-rule="nonzero" d="M699.8608 79.842V75.81h-20.1662v33.2053h20.3913v-4.032H684.511V93.551h14.3595v-4.032H684.511v-9.677h15.3498Z"/>
  <path fill="#e61900" fill-rule="nonzero" d="M705.4874 75.81v33.2053h4.8165V95.828h7.6074l6.437 13.1873h5.1316l-6.7971-14.0411c3.286-1.0436 5.4466-4.0321 5.4466-9.1552 0-6.404-3.466-10.009-8.7327-10.009h-13.9093Zm4.8165 4.032h8.3276c2.8359 0 4.6815 1.8975 4.6815 5.977 0 4.1744-1.8906 5.977-4.6815 5.977h-8.3276V79.842Z"/>
  <path fill="#e61900" fill-rule="nonzero" d="M733.2605 108.3987c2.7458.4743 6.842 1.091 10.5332 1.091 6.077 0 12.3789-2.0872 12.3789-9.8668 0-7.1628-3.016-8.3013-10.1282-10.1513-6.797-1.7077-8.1025-2.4667-8.1025-5.4078 0-3.6051 2.881-4.6013 7.0222-4.6013 3.556 0 7.5623.9487 9.3179 1.4231l.7202-4.032c-2.2507-.6168-6.0319-1.4232-9.903-1.4232-6.7071 0-11.8837 2.0398-11.8837 8.918 0 5.5027 2.1156 7.3527 10.2181 9.4873 5.3117 1.2334 7.8775 1.7077 7.8775 5.6924 0 4.5539-3.9163 5.8346-7.9675 5.8346-3.241 0-7.0672-.6166-9.408-1.091l-.6751 4.127Z"/>
  <path fill="#e61900" fill-rule="nonzero" d="M781.6959 79.842V75.81h-20.1662v33.2053h20.3913v-4.032h-15.5748V93.551h14.3594v-4.032h-14.3594v-9.677h15.3497Z"/>
  <g fill="#e61900" fill-rule="nonzero">
    <path d="M614.9509 138.1479v-4.0321h-20.1662v33.2054h20.3913v-4.0321h-15.575V151.857h14.3595v-4.0321H599.601v-9.677h15.3498Z"/>
    <path d="M645.4702 167.3212v-33.2054h-4.8165V158.83l-15.3047-24.7143h-4.9965v33.2054h4.8165v-24.7143l15.3047 24.7143h4.9965Z"/>
    <path d="M675.6296 148.2044H663.701v4.0795h7.1572v9.9142c-1.9806.664-4.5914 1.518-7.0672 1.518-4.0513 0-7.6974-2.4668-7.6974-12.9976 0-10.009 2.8809-12.9976 8.3726-12.9976 2.6108 0 5.8518.759 9.768 1.7077l.9453-3.8897c-4.0512-1.1385-7.7874-1.85-11.0734-1.85-7.8774 0-12.829 4.1743-12.829 17.0296 0 13.1398 5.7168 17.0296 12.4239 17.0296 4.0512 0 8.4176-1.4705 11.9286-2.9885v-16.5552Z"/>
    <rect width=".106" height=".7" x=".075" y="-.7" transform="matrix(45.014 0 0 47.4363 678.8707 167.3212)"/>
    <path d="M718.5285 167.3212v-33.2054h-4.8165V158.83l-15.3047-24.7143h-4.9966v33.2054h4.8165v-24.7143l15.3048 24.7143h4.9965Z"/>
    <path d="M745.4019 138.1479v-4.0321h-20.1662v33.2054h20.3913v-4.0321h-15.5748V151.857h14.3594v-4.0321h-14.3594v-9.677h15.3497Z"/>
    <path d="M771.1948 138.1479v-4.0321h-20.1662v33.2054h20.3913v-4.0321H755.845V151.857h14.3595v-4.0321H755.845v-9.677h15.3498Z"/>
    <path d="M776.8214 134.1158v33.2054h4.8165v-13.1873h7.6074l6.437 13.1873h5.1316l-6.7971-14.0412c3.286-1.0436 5.4466-4.032 5.4466-9.1552 0-6.4039-3.466-10.009-8.7327-10.009h-13.9093Zm4.8165 4.032h8.3276c2.8359 0 4.6815 1.8975 4.6815 5.977 0 4.1744-1.8906 5.977-4.6815 5.977h-8.3276v-11.954Z"/>
    <rect width=".106" height=".7" x=".075" y="-.7" transform="matrix(45.014 0 0 47.4363 802.839 167.3212)"/>
    <path d="M842.4968 167.3212v-33.2054h-4.8165V158.83l-15.3048-24.7143h-4.9965v33.2054h4.8165v-24.7143l15.3047 24.7143h4.9966Z"/>
    <path d="M872.6562 148.2044h-11.9287v4.0795h7.1572v9.9142c-1.9806.664-4.5914 1.518-7.0672 1.518-4.0512 0-7.6974-2.4668-7.6974-12.9976 0-10.009 2.881-12.9976 8.3726-12.9976 2.6108 0 5.8518.759 9.768 1.7077l.9453-3.8897c-4.0512-1.1385-7.7874-1.85-11.0734-1.85-7.8774 0-12.829 4.1743-12.829 17.0296 0 13.1398 5.7168 17.0296 12.4239 17.0296 4.0512 0 8.4176-1.4705 11.9287-2.9885v-16.5552Z"/>
  </g>
  <g fill="#e61900" fill-rule="nonzero">
    <path d="M615.613 193.5796v-3.4154h-21.7866v4.0321h15.6198l-16.25 25.758v3.4153h22.687v-4.032H599.408l16.205-25.758Z"/>
    <path d="M641.4516 194.1963v-4.032h-20.1663v33.2053h20.3913v-4.032h-15.5748v-11.4322h14.3595v-4.032h-14.3595v-9.6771h15.3498Z"/>
    <path d="M671.971 223.3696v-33.2054h-4.8166v24.7143l-15.3047-24.7143h-4.9966v33.2054h4.8165v-24.7143l15.3048 24.7143h4.9965Z"/>
    <path d="M699.9246 194.1963v-4.032h-23.4972v4.032h9.3629v29.1733h4.8165v-29.1733h9.3178Z"/>
    <path d="M704.6509 190.1642v33.2054h4.8165v-13.1873h7.6073l6.437 13.1873h5.1316l-6.797-14.0411c3.286-1.0436 5.4466-4.0321 5.4466-9.1552 0-6.404-3.466-10.009-8.7327-10.009h-13.9093Zm4.8165 4.0321h8.3276c2.8358 0 4.6814 1.8975 4.6814 5.977 0 4.1744-1.8906 5.977-4.6814 5.977h-8.3276v-11.954Z"/>
    <path d="M757.6408 190.1642h-4.8165v18.3104c0 9.345-.4951 11.2899-7.2922 11.2899-6.8422 0-7.2923-1.945-7.2923-11.2899v-18.3104h-4.8165v18.3104c0 9.8668 1.0353 15.322 12.1088 15.322 11.0734 0 12.1087-5.4552 12.1087-15.322v-18.3104Z"/>
    <path d="M797.0736 223.3696v-33.2054h-5.8969l-10.5782 21.8207-10.5783-21.8207h-5.8968v33.2054h4.8165v-25.4258l10.128 20.872h3.061l10.1282-20.872v25.4258h4.8165Z"/>
  </g>
  <path fill="#e61900" fill-rule="nonzero" d="M193.692 224.945v-27.2737l74.8555-97.5561h-75.0547V74.7296h112.8807V98.227l-78.041 101.3324h81.0272v25.3856H193.692Z"/>
</svg>
